<svg width="441" height="440" viewBox="0 0 441 440" fill="none" xmlns="http://www.w3.org/2000/svg">
<path d="M147.352 7.88379C132.768 13.2503 118.79 20.2579 105.668 28.7819L223.033 285.224L147.352 7.88379Z" fill="#FFEFAD" fill-opacity="0.2"/>
<path d="M300.968 12.5542C288.483 7.08765 275.522 2.88355 262.263 0L223.031 285.289L300.968 12.5542Z" fill="#FFEFAD" fill-opacity="0.2"/>
<path d="M391.363 87.3954C388.347 83.0576 385.188 78.8431 381.886 74.752L222.984 285.264L391.363 87.3954Z" fill="#FFEFAD" fill-opacity="0.2"/>
<path d="M426.978 170.795C423.401 153.34 417.802 136.401 410.304 120.349L222.984 285.288L426.978 170.795Z" fill="#FFEFAD" fill-opacity="0.2"/>
<path d="M14.6625 151.071C9.11813 169.615 5.93606 188.836 5.19775 208.241L222.984 285.289L14.6625 151.071Z" fill="#FFEFAD" fill-opacity="0.2"/>
<path d="M35.5423 102.794C33.5807 106.196 31.7131 109.628 29.9395 113.09L222.985 285.327L35.5423 102.794Z" fill="#FFEFAD" fill-opacity="0.2"/>
<path d="M58.4414 364.161C66.1891 373.287 74.6397 381.74 83.7093 389.435L223.032 285.289L58.4414 364.161Z" fill="#FFEFAD" fill-opacity="0.2"/>
<path d="M17.7261 292.931C22.6164 306.995 28.8642 320.508 36.3735 333.26L222.946 285.289L17.7261 292.931Z" fill="#FFEFAD" fill-opacity="0.2"/>
<path d="M161.549 431.308C180.046 436.621 199.148 439.312 218.337 439.307C219.477 439.307 220.605 439.307 221.745 439.307L222.971 285.365C219.048 288.351 179.816 385.722 161.549 431.308Z" fill="#FFEFAD" fill-opacity="0.2"/>
<path d="M294.362 424.75C310.656 418.281 326.125 409.754 340.423 399.361L223.009 285.289L294.362 424.75Z" fill="#FFEFAD" fill-opacity="0.2"/>
<path d="M359.622 383.605C362.311 381.13 364.938 378.578 367.505 375.95L222.984 285.289L359.622 383.605Z" fill="#FFEFAD" fill-opacity="0.2"/>
<path d="M393.006 344.756C405.106 326.846 414.584 307.167 421.13 286.361L222.984 285.289L393.006 344.756Z" fill="#FFEFAD" fill-opacity="0.2"/>
<path d="M430.803 237.253C431.159 233.056 431.416 228.833 431.551 224.571L222.984 285.288L430.803 237.253Z" fill="#FFEFAD" fill-opacity="0.2"/>
<path d="M364.991 123.067C377.281 123.067 387.243 110.917 387.243 95.9299C387.243 80.9426 377.281 68.793 364.991 68.793C352.702 68.793 342.739 80.9426 342.739 95.9299C342.739 110.917 352.702 123.067 364.991 123.067Z" fill="#EBEBEB"/>
<path d="M364.991 118.359C375.148 118.359 383.381 108.317 383.381 95.9301C383.381 83.5428 375.148 73.501 364.991 73.501C354.835 73.501 346.601 83.5428 346.601 95.9301C346.601 108.317 354.835 118.359 364.991 118.359Z" fill="#FFCC00"/>
<path d="M366.266 107.693V111.418H364.059V107.718C361.633 107.626 359.308 106.681 357.463 105.039L358.689 101.722C360.184 103.126 362.069 103.997 364.072 104.21V97.6392C361.08 96.7589 357.942 95.5723 357.942 91.0049C357.942 87.6622 359.928 84.7405 364.072 84.2429V80.5303H366.278V84.1792C368.247 84.2911 370.144 84.986 371.746 86.1822L370.643 89.4994C369.34 88.5634 367.846 87.9562 366.278 87.726V94.3603C369.27 95.2534 372.531 96.4016 372.531 100.956C372.519 104.274 370.496 107.157 366.266 107.693ZM364.059 93.6586V87.8153C363.323 87.8515 362.629 88.1823 362.122 88.7387C361.615 89.295 361.334 90.0338 361.338 90.8007C361.338 92.3572 362.49 93.0717 364.059 93.6331V93.6586ZM369.061 101.25C369.061 99.6295 367.835 98.8767 366.266 98.3154V104.133C368.228 103.763 369.061 102.628 369.061 101.212V101.25Z" fill="#EBEBEB"/>
<path d="M65.3813 379.764C77.6707 379.764 87.6332 367.614 87.6332 352.627C87.6332 337.64 77.6707 325.49 65.3813 325.49C53.0919 325.49 43.1294 337.64 43.1294 352.627C43.1294 367.614 53.0919 379.764 65.3813 379.764Z" fill="#EBEBEB"/>
<path d="M65.3802 375.056C75.5367 375.056 83.7702 365.014 83.7702 352.626C83.7702 340.239 75.5367 330.197 65.3802 330.197C55.2237 330.197 46.9902 340.239 46.9902 352.626C46.9902 365.014 55.2237 375.056 65.3802 375.056Z" fill="#FFCC00"/>
<path d="M66.6567 364.377V368.052H64.4499V364.415C62.0179 364.308 59.6927 363.345 57.854 361.685L59.08 358.368C60.5665 359.794 62.4525 360.688 64.4622 360.92V354.349C61.4707 353.456 58.2708 352.282 58.2708 347.715C58.2708 344.359 60.257 341.438 64.4622 340.953V337.24H66.6689V340.889C68.6386 340.997 70.5368 341.692 72.1369 342.892L71.0335 346.197C69.7301 345.264 68.2356 344.661 66.6689 344.436V351.057C69.6604 351.951 72.9093 353.099 72.9093 357.666C72.897 360.958 70.8864 363.854 66.6567 364.377ZM64.4499 350.343V344.5C63.7138 344.536 63.0196 344.867 62.5124 345.423C62.0052 345.979 61.7242 346.718 61.7282 347.485C61.7282 349.042 62.8806 349.769 64.4499 350.318V350.343ZM69.4765 357.909C69.4765 356.301 68.2505 355.548 66.6812 354.987V360.805C68.6183 360.435 69.4765 359.325 69.4765 357.909Z" fill="#EBEBEB"/>
<path d="M399.74 226.825C405.875 215.744 400.733 200.695 388.254 193.213C375.775 185.73 360.685 188.648 354.55 199.729C348.415 210.81 353.557 225.859 366.036 233.341C378.514 240.823 393.604 237.906 399.74 226.825Z" fill="#EBEBEB"/>
<path d="M395.819 224.487C400.889 215.329 396.639 202.892 386.325 196.708C376.011 190.523 363.539 192.934 358.469 202.092C353.398 211.25 357.649 223.687 367.963 229.871C378.276 236.056 390.748 233.645 395.819 224.487Z" fill="#FFCC00"/>
<path d="M387.587 218.039L390.689 219.864L389.585 221.854L386.545 220.042C385.246 222.18 383.288 223.795 380.991 224.622L378.833 221.879C380.749 221.228 382.418 219.965 383.603 218.269L378.135 214.99C375.903 217.235 373.316 219.532 369.553 217.261C366.757 215.59 365.323 212.323 367.015 208.33L363.925 206.48L365.029 204.49L368.057 206.314C369.133 204.593 370.66 203.229 372.458 202.385L374.665 205.038C373.225 205.734 371.965 206.774 370.987 208.075L376.504 211.392C378.735 209.147 381.322 206.774 385.086 209.057C387.869 210.703 389.267 213.969 387.587 218.039ZM374.751 213.012L369.847 210.091C369.504 210.771 369.43 211.564 369.641 212.301C369.851 213.037 370.33 213.659 370.975 214.033C372.36 214.824 373.525 214.148 374.751 213.012ZM383.566 212.285C382.229 211.481 381.003 212.17 379.728 213.357L384.632 216.253C385.294 214.301 384.78 212.987 383.603 212.285H383.566Z" fill="#EBEBEB"/>
<path d="M284.517 200.675C299.074 200.675 310.876 188.526 310.876 173.538C310.876 158.551 299.074 146.401 284.517 146.401C269.959 146.401 258.158 158.551 258.158 173.538C258.158 188.526 269.959 200.675 284.517 200.675Z" fill="#EBEBEB"/>
<path d="M284.515 195.968C296.553 195.968 306.313 185.926 306.313 173.538C306.313 161.151 296.553 151.109 284.515 151.109C272.476 151.109 262.716 161.151 262.716 173.538C262.716 185.926 272.476 195.968 284.515 195.968Z" fill="#FFCC00"/>
<path d="M286.025 185.301V188.976H283.414V185.327C280.609 185.252 277.889 184.306 275.604 182.609L277.039 179.292C278.889 180.754 281.1 181.639 283.414 181.844V175.209C279.871 174.329 276.058 173.143 276.058 168.588C276.058 165.232 278.412 162.311 283.414 161.813V158.101H286.025V161.749C288.314 161.847 290.543 162.535 292.511 163.753L291.199 167.07C289.61 166.116 287.849 165.513 286.025 165.296V171.931C289.569 172.824 293.381 173.972 293.381 178.527C293.431 181.882 291.04 184.765 286.025 185.301ZM283.414 171.267V165.424C281.146 165.781 280.19 166.968 280.19 168.409C280.19 169.851 281.575 170.68 283.414 171.242V171.267ZM289.348 178.922C289.348 177.302 287.95 176.549 286.025 175.988V181.806C288.355 181.359 289.348 180.236 289.348 178.833V178.922Z" fill="#EBEBEB"/>
<path d="M156.338 314.25C170.896 314.25 182.697 302.101 182.697 287.113C182.697 272.126 170.896 259.977 156.338 259.977C141.78 259.977 129.979 272.126 129.979 287.113C129.979 302.101 141.78 314.25 156.338 314.25Z" fill="#EBEBEB"/>
<path d="M156.339 309.542C168.378 309.542 178.138 299.5 178.138 287.113C178.138 274.725 168.378 264.684 156.339 264.684C144.3 264.684 134.541 274.725 134.541 287.113C134.541 299.5 144.3 309.542 156.339 309.542Z" fill="#FFCC00"/>
<path d="M157.859 298.877V302.551H155.296V298.966C152.49 298.887 149.77 297.936 147.487 296.236L148.921 292.919C150.778 294.358 152.988 295.22 155.296 295.406V288.759C151.766 287.866 147.94 286.692 147.94 282.125C147.94 278.77 150.307 275.848 155.296 275.35V271.65H157.92V275.287C160.203 275.39 162.427 276.078 164.393 277.29L163.082 280.607C161.495 279.657 159.738 279.054 157.92 278.833V285.468C161.463 286.361 165.276 287.509 165.276 292.076C165.264 295.457 162.861 298.354 157.859 298.877ZM155.235 284.842V278.999C152.979 279.356 152.023 280.543 152.023 281.985C152.023 283.426 153.396 284.256 155.296 284.817L155.235 284.842ZM161.181 292.434C161.181 290.826 159.771 290.073 157.859 289.512V295.317C160.2 294.934 161.181 293.863 161.181 292.408V292.434Z" fill="#EBEBEB"/>
<path d="M47.0323 253.271C60.151 246.704 65.7246 230.431 59.4813 216.925C53.2381 203.419 37.5421 197.795 24.4234 204.362C11.3047 210.929 5.73109 227.202 11.9744 240.707C18.2176 254.213 33.9136 259.838 47.0323 253.271Z" fill="#EBEBEB"/>
<path d="M45.0489 249.054C55.8978 243.623 60.5094 230.171 55.3492 219.009C50.189 207.846 37.2112 203.199 26.3623 208.63C15.5135 214.061 10.9019 227.513 16.062 238.676C21.2222 249.839 34.2001 254.485 45.0489 249.054Z" fill="#FFCC00"/>
<path d="M41.9896 238.733L43.5221 242.051L41.1682 243.224L39.6479 239.945C37.0872 241.148 34.2379 241.522 31.4705 241.017L31.3847 237.381C33.6572 237.839 36.0077 237.617 38.1645 236.743L35.4305 230.836C31.8751 231.627 27.9641 232.278 26.0516 228.157C24.6662 225.146 25.5734 221.446 29.8522 218.754L28.3074 215.411L30.6613 214.225L32.1816 217.516C34.2815 216.574 36.5729 216.189 38.851 216.394L39.0594 219.979C37.2325 219.837 35.397 220.085 33.665 220.706L36.3745 226.689C39.9299 225.886 43.8899 225.184 45.7902 229.305C47.2369 232.316 46.2806 236.003 41.9896 238.733ZM33.7754 227.251L31.3234 221.982C29.4231 223.334 29.0553 224.827 29.656 226.128C30.2568 227.429 31.8751 227.583 33.7754 227.251ZM42.2838 231.41C41.6095 229.956 40.0402 229.905 38.0786 230.275L40.5306 235.505C42.5045 234.128 42.8723 232.686 42.2838 231.41Z" fill="#EBEBEB"/>
<path d="M130.102 181.921C131.547 185.534 131.927 189.513 131.192 193.351C130.458 197.19 128.643 200.714 125.978 203.476C123.314 206.237 119.92 208.112 116.228 208.86C112.537 209.608 108.715 209.197 105.249 207.679C101.783 206.16 98.8291 203.603 96.7637 200.332C94.6983 197.062 93.6145 193.226 93.6503 189.312C93.686 185.399 94.8397 181.585 96.9645 178.356C99.0893 175.127 102.089 172.628 105.582 171.179C110.204 169.228 115.379 169.264 119.975 171.278C124.571 173.291 128.213 177.118 130.102 181.921Z" fill="#EBEBEB"/>
<path d="M127.099 183.197C128.281 186.185 128.583 189.471 127.966 192.638C127.35 195.806 125.843 198.711 123.637 200.985C121.431 203.259 118.626 204.8 115.577 205.412C112.528 206.024 109.373 205.68 106.512 204.422C103.652 203.165 101.215 201.051 99.5111 198.349C97.8072 195.648 96.913 192.481 96.9421 189.249C96.9712 186.018 97.9223 182.869 99.6746 180.201C101.427 177.533 103.901 175.467 106.784 174.266C108.681 173.461 110.712 173.053 112.761 173.067C114.81 173.08 116.836 173.514 118.723 174.344C120.61 175.173 122.321 176.382 123.759 177.902C125.196 179.421 126.331 181.22 127.099 183.197Z" fill="#FFCC00"/>
<path d="M116.555 196.695L117.499 199.145L115.758 199.885L114.826 197.448C112.932 198.182 110.87 198.311 108.905 197.818L109.003 195.202C110.616 195.641 112.314 195.601 113.907 195.087L112.215 190.699C109.628 191.094 106.784 191.375 105.607 188.326C104.749 186.093 105.607 183.49 108.758 181.768L107.801 179.293L109.555 178.565L110.486 180.99C112.058 180.414 113.743 180.251 115.39 180.517V183.069C114.087 182.877 112.759 182.968 111.492 183.337L113.196 187.751C115.783 187.356 118.664 187.05 119.841 190.099C120.613 192.357 119.743 194.947 116.555 196.695ZM111.161 188.058L109.677 184.141C108.267 185.021 107.936 186.067 108.304 187.037C108.672 188.007 109.812 188.198 111.161 188.058ZM117.082 191.451C116.665 190.38 115.537 190.265 114.115 190.431L115.611 194.258C117.094 193.416 117.462 192.395 117.107 191.451H117.082Z" fill="#EBEBEB"/>
<path d="M361.993 386.759C371.705 382.694 376.446 371.296 372.583 361.3C368.72 351.305 357.715 346.497 348.003 350.562C338.291 354.627 333.55 366.025 337.413 376.02C341.277 386.016 352.281 390.824 361.993 386.759Z" fill="#EBEBEB"/>
<path d="M360.814 383.555C368.841 380.193 372.759 370.77 369.564 362.508C366.369 354.245 357.271 350.272 349.244 353.634C341.216 356.996 337.298 366.419 340.493 374.681C343.688 382.944 352.786 386.917 360.814 383.555Z" fill="#FFCC00"/>
<path d="M359.046 376.051L359.99 378.501L358.249 379.241L357.305 376.804C355.414 377.533 353.358 377.661 351.396 377.174L351.494 374.559C353.107 374.997 354.806 374.957 356.398 374.444L354.706 370.055C352.119 370.451 349.275 370.731 348.098 367.682C347.24 365.449 348.098 362.847 351.249 361.124L350.293 358.649L352.033 357.922L352.977 360.346C354.525 359.775 356.185 359.613 357.808 359.874V362.426C356.5 362.254 355.173 362.367 353.909 362.757L355.613 367.172C358.2 366.776 361.081 366.47 362.258 369.506C363.104 371.688 362.258 374.304 359.046 376.051ZM353.676 367.414L352.168 363.51C350.758 364.39 350.427 365.437 350.795 366.406C351.163 367.376 352.303 367.554 353.676 367.414ZM359.598 370.808C359.181 369.736 358.053 369.621 356.631 369.787L358.127 373.615C359.586 372.773 359.953 371.752 359.598 370.808Z" fill="#EBEBEB"/>
<path d="M243.077 369.775C244.522 373.388 244.902 377.367 244.168 381.205C243.433 385.043 241.618 388.567 238.953 391.329C236.289 394.091 232.895 395.965 229.203 396.714C225.512 397.462 221.69 397.051 218.224 395.532C214.758 394.014 211.804 391.456 209.739 388.186C207.673 384.915 206.59 381.079 206.625 377.166C206.661 373.252 207.815 369.438 209.94 366.209C212.064 362.98 215.064 360.482 218.557 359.032C223.179 357.082 228.354 357.118 232.95 359.131C237.546 361.145 241.188 364.972 243.077 369.775Z" fill="#EBEBEB"/>
<path d="M240.036 371.051C241.217 374.039 241.518 377.324 240.901 380.491C240.285 383.657 238.778 386.561 236.572 388.835C234.367 391.109 231.562 392.65 228.514 393.262C225.465 393.874 222.311 393.53 219.451 392.273C216.591 391.017 214.154 388.904 212.45 386.204C210.745 383.504 209.85 380.337 209.878 377.107C209.905 373.876 210.854 370.727 212.605 368.059C214.355 365.39 216.828 363.323 219.709 362.12C221.607 361.315 223.639 360.907 225.688 360.92C227.738 360.933 229.765 361.367 231.653 362.197C233.541 363.026 235.254 364.235 236.692 365.755C238.131 367.274 239.267 369.074 240.036 371.051Z" fill="#FFCC00"/>
<path d="M229.542 384.549L230.486 386.998L228.745 387.738L227.801 385.301C225.911 386.036 223.853 386.165 221.892 385.671L221.99 383.12C223.603 383.56 225.302 383.52 226.894 383.005L225.178 378.552C222.591 378.96 219.759 379.228 218.582 376.179C217.711 373.946 218.582 371.344 221.732 369.621L220.776 367.146L222.517 366.419L223.461 368.843C225.01 368.278 226.669 368.116 228.292 368.371V370.923C226.984 370.73 225.653 370.821 224.381 371.191L226.097 375.605C228.684 375.209 231.553 374.903 232.73 377.952C233.588 380.211 232.742 382.801 229.542 384.549ZM224.172 375.911L222.726 372.007C221.303 372.887 220.972 373.934 221.352 374.903C221.732 375.873 222.787 376.051 224.172 375.911ZM230.082 379.343C229.665 378.271 228.537 378.169 227.115 378.322L228.61 382.15C230.082 381.27 230.449 380.249 230.082 379.343Z" fill="#EBEBEB"/>
<path d="M260.779 63.5296C269.762 59.7681 274.144 49.2205 270.567 39.9709C266.991 30.7213 256.809 26.2724 247.827 30.0339C238.844 33.7954 234.462 44.343 238.039 53.5926C241.615 62.8422 251.797 67.2912 260.779 63.5296Z" fill="#EBEBEB"/>
<path d="M267.758 41.1584C268.86 43.922 269.148 46.9642 268.586 49.8987C268.023 52.8331 266.635 55.5272 264.598 57.6388C262.56 59.7505 259.966 61.1843 257.144 61.7581C254.322 62.3319 251.4 62.0199 248.748 60.8616C246.097 59.7033 243.836 57.7511 242.254 55.2529C240.671 52.7547 239.838 49.8234 239.859 46.8312C239.881 43.839 240.757 40.921 242.376 38.448C243.994 35.975 246.283 34.0585 248.951 32.942C250.704 32.1957 252.581 31.8163 254.476 31.8254C256.37 31.8344 258.244 32.2318 259.99 32.9949C261.737 33.7579 263.322 34.8716 264.655 36.2723C265.987 37.6731 267.042 39.3334 267.758 41.1584Z" fill="#FFCC00"/>
<path d="M258.046 53.6483L258.917 55.9193L257.299 56.5954L256.44 54.35C254.685 55.023 252.778 55.1385 250.96 54.6817L251.058 52.2704C252.551 52.67 254.122 52.6302 255.594 52.1556L254.025 48.0984C251.573 48.4684 248.998 48.7236 247.895 45.904C247.098 43.8371 247.895 41.4258 250.813 39.831L249.93 37.5473L251.549 36.8711L252.419 39.1166C253.849 38.5885 255.383 38.4394 256.882 38.6828V41.0686C255.673 40.8875 254.441 40.97 253.265 41.311L254.859 45.4064C257.311 45.0364 259.91 44.743 260.989 47.5626C261.798 49.6294 261.001 52.028 258.046 53.6483ZM253.069 45.6488L251.683 42.0382C250.372 42.8547 250.065 43.8244 250.457 44.7175C250.85 45.6105 251.794 45.7892 253.069 45.6488ZM258.549 48.8001C258.157 47.805 257.115 47.7029 255.803 47.856L257.188 51.4411C258.537 50.6118 258.88 49.6677 258.549 48.8001Z" fill="#EBEBEB"/>
<path d="M207.736 130.85C215.013 127.349 217.718 117.32 213.777 108.449C209.836 99.5778 200.743 95.2242 193.466 98.7249C186.189 102.226 183.484 112.255 187.425 121.126C191.366 129.997 200.459 134.351 207.736 130.85Z" fill="#EBEBEB"/>
<path d="M211.483 109.531C214.744 116.867 212.513 125.16 206.493 128.056C200.474 130.952 193.007 127.341 189.709 120.018C186.411 112.695 188.68 104.389 194.699 101.493C200.719 98.5967 208.222 102.195 211.483 109.531Z" fill="#FFCC00"/>
<path d="M204.446 121.371L205.414 123.552L204.103 124.177L203.146 122.021C201.678 122.646 200.05 122.741 198.524 122.289L198.365 119.967C199.615 120.397 200.965 120.397 202.214 119.967L200.486 116.14C198.487 116.471 196.281 116.688 195.079 113.983C194.821 113.47 194.665 112.907 194.622 112.329C194.578 111.752 194.647 111.17 194.824 110.621C195.002 110.072 195.284 109.565 195.655 109.132C196.025 108.699 196.476 108.349 196.979 108.102L195.999 105.895L197.31 105.27L198.267 107.426C199.462 106.934 200.768 106.806 202.031 107.056L202.251 109.339C201.234 109.147 200.187 109.213 199.199 109.531L200.939 113.46C202.95 113.129 205.181 112.886 206.371 115.591C206.849 116.624 206.914 117.811 206.554 118.894C206.193 119.977 205.435 120.867 204.446 121.371ZM199.444 113.716L197.899 110.258C197.471 110.49 197.147 110.886 196.994 111.361C196.841 111.837 196.871 112.356 197.078 112.81C197.494 113.69 198.365 113.792 199.431 113.677L199.444 113.716ZM204.348 116.778C203.931 115.833 203.024 115.719 201.896 115.846L203.428 119.291C204.568 118.474 204.777 117.581 204.397 116.739L204.348 116.778Z" fill="#EBEBEB"/>
<path d="M111.455 68.64L115.304 70.643C126.338 76.346 130.016 91.8474 123.592 105.256C117.168 118.665 103.044 124.917 92.0472 119.214L88.1976 117.224C77.1635 111.521 73.4855 96.0193 79.922 82.6103C86.3586 69.2014 100.458 62.937 111.455 68.64Z" fill="#FFCC00"/>
<path d="M119.746 103.269C126.169 89.8551 122.46 74.3567 111.461 68.6523C100.462 62.948 86.338 69.1977 79.9141 82.6115C73.4903 96.0254 77.1993 111.524 88.1984 117.228C99.1976 122.932 113.322 116.683 119.746 103.269Z" fill="#EBEBEB"/>
<path d="M116.291 101.476C121.6 90.3896 118.535 77.5803 109.445 72.8659C100.355 68.1516 88.6818 73.3174 83.3724 84.4042C78.0629 95.4909 81.1278 108.3 90.2181 113.015C99.3083 117.729 110.981 112.563 116.291 101.476Z" fill="#FFCC00"/>
<path d="M95.9338 104.044L94.3645 107.336L92.3784 106.315L93.9477 103.049C91.8111 101.835 90.1403 99.8932 89.2153 97.5499L91.6673 95.1513C92.4063 97.1303 93.7392 98.8082 95.4679 99.9357L98.2755 94.0541C95.9829 91.8724 93.6289 89.3208 95.5783 85.2381C97.0127 82.2399 100.053 80.5558 104.025 82.0613L105.619 78.7441L107.593 79.7648L106.024 83.0309C107.74 84.0391 109.14 85.5408 110.057 87.356L107.605 89.8056C106.842 88.3617 105.762 87.1248 104.455 86.195L101.61 92.1404C103.915 94.322 106.33 96.8609 104.381 100.944C102.996 103.891 99.9428 105.537 95.9338 104.044ZM99.9796 90.4435L102.493 85.2126C101.822 84.9124 101.067 84.892 100.382 85.1556C99.6972 85.4192 99.1362 85.9467 98.8149 86.6288C98.1038 88.0322 98.8272 89.2187 99.9796 90.4435ZM101.206 99.5529C101.892 98.124 101.206 96.8992 99.9796 95.6489L97.5276 100.842C99.3789 101.428 100.605 100.829 101.218 99.5529H101.206Z" fill="#EBEBEB"/>
<path d="M430.165 268.677L432.837 270.068C440.463 274.023 443.038 284.778 438.587 294.092C434.137 303.405 424.317 307.743 416.691 303.788L413.981 302.397C406.343 298.442 403.769 287.687 408.232 278.373C412.694 269.06 422.563 264.722 430.165 268.677Z" fill="#FFCC00"/>
<path d="M408.268 278.373C403.805 287.687 406.38 298.442 414.018 302.397C421.656 306.352 431.452 302.015 435.914 292.701C440.377 283.387 437.79 272.632 430.165 268.677C422.539 264.722 412.755 269.06 408.268 278.373Z" fill="#EBEBEB"/>
<path d="M433.523 291.491C437.211 283.79 435.086 274.896 428.777 271.624C422.469 268.352 414.365 271.942 410.677 279.643C406.99 287.343 409.115 296.237 415.423 299.509C421.732 302.781 429.835 299.191 433.523 291.491Z" fill="#FFCC00"/>
<path d="M419.389 293.25L418.285 295.534L416.925 294.832L418.003 292.561C416.522 291.711 415.363 290.361 414.718 288.734L416.459 287.062C416.968 288.415 417.878 289.564 419.058 290.341L421.007 286.271C419.413 284.753 417.783 282.98 419.144 280.147C419.389 279.601 419.735 279.111 420.162 278.705C420.589 278.298 421.089 277.983 421.634 277.778C422.178 277.573 422.756 277.482 423.334 277.51C423.913 277.538 424.48 277.684 425.004 277.94L426.107 275.631L427.48 276.345L426.389 278.616C427.579 279.314 428.55 280.356 429.185 281.615L427.468 283.337C426.942 282.321 426.194 281.447 425.286 280.785L423.361 284.932C424.955 286.45 426.634 288.211 425.274 291.056C424.772 292.158 423.87 293.008 422.767 293.419C421.664 293.83 420.449 293.77 419.389 293.25ZM422.196 283.809L423.937 280.173C423.472 279.953 422.943 279.926 422.459 280.1C421.976 280.273 421.575 280.632 421.338 281.104C420.885 282.138 421.338 282.954 422.196 283.809ZM423.055 290.188C423.533 289.193 423.055 288.338 422.184 287.471L420.455 291.081C420.922 291.307 421.454 291.335 421.939 291.158C422.425 290.982 422.825 290.616 423.055 290.137V290.188Z" fill="#EBEBEB"/>
<path d="M277.896 261.558L281.746 263.548C292.78 269.251 296.458 284.753 290.021 298.162C283.585 311.571 269.474 317.822 258.476 312.119L254.602 310.129C243.568 304.426 239.89 288.925 246.327 275.516C252.763 262.107 266.862 255.855 277.896 261.558Z" fill="#FFCC00"/>
<path d="M246.338 275.516C239.89 288.925 243.568 304.426 254.602 310.129C265.636 315.832 279.722 309.58 286.147 296.171C292.571 282.762 288.93 267.261 277.896 261.558C266.862 255.855 252.763 262.107 246.338 275.516Z" fill="#EBEBEB"/>
<path d="M282.709 294.398C288.019 283.312 284.954 270.502 275.864 265.788C266.773 261.073 255.1 266.239 249.791 277.326C244.481 288.413 247.546 301.222 256.637 305.936C265.727 310.651 277.4 305.485 282.709 294.398Z" fill="#FFCC00"/>
<path d="M262.351 296.962L260.732 300.241L258.758 299.208L260.315 295.954C258.18 294.732 256.511 292.787 255.583 290.443L258.035 288.044C258.778 289.992 260.09 291.648 261.787 292.777L264.606 286.896C262.302 284.714 259.948 282.175 261.897 278.08C263.344 275.082 266.372 273.398 270.344 274.903L271.938 271.586L273.912 272.607L272.342 275.873C274.056 276.885 275.455 278.386 276.376 280.198L273.924 282.66C273.167 281.211 272.086 279.973 270.773 279.05L268.088 284.995C270.381 287.177 272.796 289.716 270.847 293.798C269.412 296.796 266.36 298.455 262.351 296.962ZM266.396 283.349L268.91 278.118C268.239 277.821 267.484 277.802 266.8 278.066C266.116 278.329 265.555 278.854 265.232 279.534C264.521 280.951 265.244 282.124 266.396 283.349ZM267.622 292.471C268.309 291.03 267.622 289.805 266.396 288.554L263.944 293.76C265.808 294.347 267.034 293.734 267.635 292.471H267.622Z" fill="#EBEBEB"/>
<path d="M364.942 68.793H360.639C348.379 68.793 338.387 80.9389 338.387 95.9299C338.387 110.921 348.354 123.067 360.639 123.067H364.942C377.202 123.067 387.182 110.921 387.182 95.9299C387.182 80.9389 377.275 68.793 364.942 68.793Z" fill="#FFCC00"/>
<path d="M65.3818 325.49H61.0786C48.8186 325.49 38.8267 337.636 38.8267 352.627C38.8267 367.618 48.794 379.764 61.0786 379.764H65.3818C77.6418 379.764 87.6215 367.605 87.6215 352.627C87.6215 337.649 77.6663 325.49 65.3818 325.49Z" fill="#FFCC00"/>
<path d="M354.57 199.769L352.425 203.597C346.295 214.684 351.432 229.726 363.9 237.215C376.368 244.704 391.473 241.783 397.603 230.696C397.774 230.402 399.589 227.123 399.748 226.868C405.878 215.794 400.741 200.752 388.273 193.263C375.805 185.774 360.7 188.695 354.57 199.769Z" fill="#FFCC00"/>
<path d="M193.461 98.6604L190.911 99.9363C183.64 103.432 180.931 113.46 184.879 122.34C188.826 131.22 197.911 135.557 205.181 132.062L207.731 130.786C215.001 127.29 217.711 117.262 213.763 108.382C209.815 99.5025 200.731 95.2029 193.461 98.6604Z" fill="#FFCC00"/>
</svg>
