<svg width="46" height="47" viewBox="0 0 46 47" fill="none" xmlns="http://www.w3.org/2000/svg">
<path d="M42.7676 33.4191C42.3517 35.5411 40.5849 37.1581 38.4023 37.4613C34.9721 37.9662 29.255 38.5725 22.8104 38.5725C16.47 38.5725 10.7529 37.9662 7.21847 37.4613C5.03585 37.1581 3.26816 35.5411 2.85323 33.4191C2.43736 31.0953 2.02148 27.6594 2.02148 23.4154C2.02148 19.1714 2.43736 15.7355 2.85323 13.4117C3.2691 11.2897 5.03585 9.67265 7.21847 9.36951C10.6487 8.86458 16.3658 8.2583 22.8104 8.2583C29.255 8.2583 34.8679 8.86458 38.4023 9.36951C40.5849 9.67265 42.3526 11.2897 42.7676 13.4117C43.1834 15.7355 43.7035 19.1714 43.7035 23.4154C43.5993 27.6594 43.1834 31.0953 42.7676 33.4191Z" fill="url(#paint0_linear_639_1982)"/>
<path opacity="0.05" d="M30.7746 21.9373L19.9411 14.7149C19.3945 14.3502 18.6963 14.3161 18.1175 14.6268C17.5387 14.9366 17.1787 15.5363 17.1787 16.1928V30.6375C17.1787 31.294 17.5387 31.8946 18.1175 32.2043C18.3809 32.3455 18.6679 32.4146 18.9549 32.4146C19.2998 32.4146 19.6427 32.3142 19.9401 32.1162L30.7737 24.8939C31.2691 24.5633 31.5647 24.011 31.5647 23.4161C31.5656 22.8202 31.2691 22.2679 30.7746 21.9373Z" fill="black"/>
<path opacity="0.07" d="M19.718 15.1136L29.9395 21.9286C30.5922 22.3975 31.0318 22.8172 31.0318 23.3619C31.0318 23.9066 30.8196 24.2865 30.3545 24.6256C30.003 24.8814 19.8913 31.6017 19.8913 31.6017C19.0378 32.1738 17.6519 32.0526 17.6519 30.1816V16.5412C17.6519 14.6418 19.1524 14.7365 19.718 15.1136Z" fill="black"/>
<path d="M18.126 30.585V16.2473C18.126 15.5435 18.9104 15.1229 19.4967 15.5141L30.2507 22.6834C30.7746 23.032 30.7746 23.8012 30.2507 24.1508L19.4967 31.3201C18.9104 31.7095 18.126 31.2898 18.126 30.585Z" fill="white"/>
<defs>
<linearGradient id="paint0_linear_639_1982" x1="9.42573" y1="10.0307" x2="39.1999" y2="39.805" gradientUnits="userSpaceOnUse">
<stop stop-color="#F44F5A"/>
<stop offset="0.443" stop-color="#EE3D4A"/>
<stop offset="1" stop-color="#E52030"/>
</linearGradient>
</defs>
</svg>
