<svg width="46" height="47" viewBox="0 0 46 47" fill="none" xmlns="http://www.w3.org/2000/svg">
<path d="M38.0232 40.6962L7.73455 40.7255C6.69345 40.7265 5.84086 39.8758 5.83991 38.8347L5.81055 8.54607C5.8096 7.50497 6.66029 6.65239 7.7014 6.65144L37.99 6.62207C39.0311 6.62112 39.8837 7.47182 39.8846 8.51292L39.914 38.8015C39.915 39.8426 39.0643 40.6952 38.0232 40.6962Z" fill="url(#paint0_linear_639_1994)"/>
<path fill-rule="evenodd" clip-rule="evenodd" d="M27.7965 20.4594C29.2894 21.526 31.1187 22.1532 33.0939 22.1532V18.3535C32.7197 18.3535 32.3474 18.3146 31.9817 18.2369V21.2276C30.0066 21.2276 28.1782 20.5996 26.6843 19.5338V27.2867C26.6843 31.165 23.5383 34.3091 19.6581 34.3091C18.2106 34.3091 16.8644 33.8715 15.7466 33.1212C17.0226 34.4247 18.8017 35.2337 20.7702 35.2337C24.6504 35.2337 27.7965 32.0896 27.7965 28.2113V20.4594ZM29.1691 16.6265C28.4065 15.7938 27.9054 14.7167 27.7965 13.5259V13.0371H26.7421C27.0074 14.55 27.913 15.8431 29.1691 16.6265ZM18.2011 30.1457C17.7748 29.5868 17.5446 28.9037 17.5455 28.2008C17.5455 26.4265 18.9845 24.9885 20.7598 24.9885C21.0904 24.9885 21.4191 25.0387 21.7346 25.1391V21.2551C21.3661 21.2049 20.9947 21.1831 20.6224 21.1907V24.2136C20.307 24.1132 19.9783 24.0629 19.6467 24.0629C17.8714 24.0629 16.4324 25.501 16.4324 27.2753C16.4334 28.5305 17.1524 29.6171 18.2011 30.1457Z" fill="#EC407A"/>
<path fill-rule="evenodd" clip-rule="evenodd" d="M26.6841 19.5338C28.1771 20.6005 30.0063 21.2276 31.9815 21.2276V18.2369C30.8788 18.002 29.9031 17.426 29.1689 16.6256C27.9127 15.8421 27.0081 14.55 26.7428 13.0371H23.9738V28.2113C23.9672 29.9799 22.531 31.4122 20.7596 31.4122C19.7156 31.4122 18.7882 30.9149 18.2008 30.1447C17.1522 29.6161 16.4331 28.5296 16.4331 27.2753C16.4331 25.501 17.8721 24.0629 19.6474 24.0629C19.9875 24.0629 20.3153 24.116 20.6231 24.2136V21.1916C16.8111 21.2703 13.7456 24.3831 13.7456 28.2122C13.7456 30.1239 14.5091 31.8565 15.7482 33.1222C16.8661 33.8724 18.2122 34.3101 19.6597 34.3101C23.5399 34.3101 26.686 31.1659 26.686 27.2876L26.6841 19.5338Z" fill="white"/>
<path fill-rule="evenodd" clip-rule="evenodd" d="M31.9813 18.2376V17.4286C30.9866 17.4305 30.0127 17.152 29.1687 16.6253C29.9152 17.4428 30.8985 18.0065 31.9813 18.2376ZM26.7417 13.0369C26.7161 12.8919 26.6971 12.747 26.6839 12.6001V12.1113H22.8605V27.2864C22.8548 29.0551 21.4177 30.4874 19.6462 30.4874C19.1262 30.4874 18.6355 30.3643 18.2006 30.1445C18.788 30.9147 19.7154 31.412 20.7593 31.412C22.5308 31.412 23.967 29.9797 23.9736 28.211V13.0369H26.7417ZM20.622 21.1914V20.3303C20.3027 20.2867 19.9806 20.2649 19.6576 20.2649C15.7764 20.2649 12.6313 23.409 12.6313 27.2874C12.6313 29.7191 13.8676 31.862 15.7461 33.1219C14.507 31.8563 13.7435 30.1236 13.7435 28.212C13.7435 24.3829 16.81 21.27 20.622 21.1914Z" fill="#81D4FA"/>
<defs>
<linearGradient id="paint0_linear_639_1994" x1="22.8405" y1="6.77269" x2="22.8405" y2="40.7691" gradientUnits="userSpaceOnUse">
<stop stop-color="#4C4C4C"/>
<stop offset="1" stop-color="#343434"/>
</linearGradient>
</defs>
</svg>
