<svg width="30" height="30" viewBox="0 0 30 30" fill="none" xmlns="http://www.w3.org/2000/svg">
<path d="M19.7775 6.32307C19.5231 6.02369 19.1088 5.91369 18.7394 6.04932C18.3706 6.18494 18.125 6.53619 18.125 6.92932V9.68744C18.125 10.2043 17.7044 10.6249 17.1875 10.6249C16.6706 10.6249 16.25 10.2043 16.25 9.68744V3.08432C16.25 2.81557 16.135 2.56057 15.9338 2.38244C15.7256 2.19869 15.6038 2.09557 15.6038 2.09557C15.2562 1.80307 14.7475 1.80182 14.3981 2.09369C14.0144 2.41494 5 10.0449 5 17.4999C5 23.0137 9.48625 27.4999 15 27.4999C20.5138 27.4999 25 23.0137 25 17.4999C25 13.3474 22.16 9.12994 19.7775 6.32307ZM15.1213 25.9356C14.18 25.9631 13.2831 25.6018 12.5431 25.0193C8.9225 22.1699 12.3094 17.6062 14.0781 15.6393C14.5725 15.0899 15.4306 15.0931 15.925 15.6424C17.1237 16.9762 19.0625 19.4999 19.0625 21.8749C19.0625 24.0781 17.3088 25.8712 15.1213 25.9356Z" fill="url(#paint0_linear_812_1147)"/>
<defs>
<linearGradient id="paint0_linear_812_1147" x1="3" y1="6.60616" x2="27.4844" y2="23.0838" gradientUnits="userSpaceOnUse">
<stop stop-color="#FFBE00"/>
<stop offset="0.528601" stop-color="#FF55FD"/>
<stop offset="1" stop-color="#7FBBFF"/>
</linearGradient>
</defs>
</svg>
