<svg width="24" height="25" viewBox="0 0 24 25" fill="none" xmlns="http://www.w3.org/2000/svg">
<path d="M12 2.5C6.486 2.5 2 6.986 2 12.5C2 18.014 6.486 22.5 12 22.5C17.514 22.5 22 18.014 22 12.5C22 6.986 17.514 2.5 12 2.5ZM12 7C13.3805 7 14.5 8.1195 14.5 9.5C14.5 10.8805 13.3805 12 12 12C10.6195 12 9.5 10.8805 9.5 9.5C9.5 8.1195 10.6195 7 12 7ZM16.5 15.269C16.5 16.6985 14.6765 18 12 18C9.3235 18 7.5 16.6985 7.5 15.269V14.931C7.5 14.417 7.917 14 8.431 14H15.569C16.083 14 16.5 14.417 16.5 14.931V15.269Z" fill="#BABABA"/>
</svg>
