<svg width="47" height="47" viewBox="0 0 47 47" fill="none" xmlns="http://www.w3.org/2000/svg">
<path d="M13.4403 17.5543C12.178 18.8152 11.1868 20.5577 10.6707 22.598C9.44522 27.447 11.3718 32.141 15.2151 33.1264C15.2364 33.1318 15.2578 33.1364 15.2796 33.1418L15.2792 33.1427L18.64 34.0044L18.6459 33.9812C22.3668 34.6528 26.2314 31.5744 27.4136 26.8973C28.5959 22.2205 26.6629 17.6557 23.0761 16.4534L23.0784 16.4443L22.8911 16.3961C22.8188 16.3748 22.7474 16.352 22.6737 16.3329C22.6001 16.3138 22.5269 16.2997 22.4532 16.2838L19.7172 15.5822L19.7167 15.5831C19.6954 15.5772 19.6744 15.5713 19.6531 15.5658C18.3667 15.2362 17.0721 15.3717 15.8735 15.8796" fill="white" fill-opacity="0.5"/>
<path d="M19.6714 34.5277C19.3462 34.5277 19.0202 34.5027 18.6942 34.4509C18.6387 34.4604 18.5819 34.4595 18.5264 34.4449L15.1656 33.5828C15.1579 33.5805 15.1506 33.5787 15.1433 33.576L15.097 33.5651C11.0614 32.5306 8.92104 27.6634 10.2292 22.486C10.7531 20.4134 11.7521 18.5968 13.1185 17.2322C13.2958 17.0544 13.5841 17.0544 13.7615 17.2322C13.9388 17.41 13.9388 17.6979 13.761 17.8752C12.511 19.1243 11.5948 20.7954 11.1114 22.7088C9.92732 27.3937 11.7794 31.7753 15.3275 32.6852C15.3489 32.6907 15.3698 32.6975 15.3907 32.7061L15.3916 32.7016L18.616 33.5282C18.6528 33.5251 18.6887 33.5264 18.726 33.5332C22.2309 34.1657 25.8555 31.2024 26.9718 26.7858C28.0886 22.3673 26.3134 18.0184 22.9307 16.8844C22.9121 16.878 22.8939 16.8707 22.8766 16.8621L22.7775 16.8366C22.7707 16.8348 22.7229 16.8207 22.7166 16.8184C22.6652 16.803 22.6138 16.7875 22.5615 16.7739C22.512 16.7607 22.4647 16.7507 22.4174 16.7411L22.3564 16.7284L19.6377 16.0313C19.6245 16.0291 19.6109 16.0259 19.5982 16.0222L19.6523 15.573L19.6514 15.5725L19.5404 16.0063C18.3986 15.7135 17.1918 15.8149 16.0509 16.2987C15.819 16.3969 15.5526 16.2887 15.4548 16.0573C15.357 15.8263 15.4648 15.5593 15.6963 15.4611C17.0227 14.8996 18.43 14.7841 19.7664 15.1256C19.7691 15.1265 19.7946 15.1333 19.8055 15.136C19.8141 15.1378 19.8223 15.1396 19.8305 15.1419L22.6052 15.8517C22.6666 15.8645 22.7279 15.8776 22.7884 15.8936C22.8521 15.9095 22.9171 15.9295 22.9821 15.949L23.1908 16.0041C23.2336 16.015 23.2731 16.0318 23.3091 16.0527C27.0823 17.3814 29.0771 22.17 27.8544 27.009C26.7353 31.4352 23.2727 34.5277 19.6714 34.5277Z" fill="#1F212B"/>
<path d="M18.7836 34.3336L15.1396 33.3992C15.1364 33.3983 15.1337 33.3974 15.1305 33.3969L14.9995 33.3632L15 33.3614C11.1713 32.281 9.16692 27.5884 10.4292 22.5943L10.8703 22.7052C9.65528 27.5134 11.5796 32.0168 15.2505 32.9581L15.5179 33.0195L15.517 33.0268L18.4544 33.7793L18.7145 32.7507L18.8237 32.7085C21.3296 31.7354 23.3708 29.2135 24.1511 26.1269C24.9314 23.0399 24.3352 19.841 22.596 17.7789L22.5205 17.6897L22.7806 16.6603L19.8609 15.9118V15.9145L19.6371 15.8559L19.6617 15.6276L19.4753 15.5808L19.5307 15.3589L19.6867 15.3984V15.398L19.7526 15.4148L23.333 16.3329L23.0188 17.5761C24.7931 19.75 25.3965 23.0563 24.5921 26.2383C23.7873 29.4209 21.6883 32.0337 19.0978 33.0886L18.7836 34.3336Z" fill="#1F212B"/>
<path d="M18.2151 33.945C14.3719 32.9596 12.2502 28.2301 13.4756 23.3811C14.7011 18.532 18.8099 15.3999 22.6531 16.3853C26.4963 17.3707 28.618 22.1001 27.3926 26.9492C26.1671 31.7983 22.0583 34.9303 18.2151 33.945Z" fill="white" fill-opacity="0.5"/>
<path d="M19.6644 34.3562C19.1592 34.3562 18.6554 34.2926 18.1584 34.1653C14.2001 33.1508 12.0007 28.2876 13.2548 23.3254C13.951 20.5707 15.5843 18.2576 17.736 16.9794C19.3434 16.0245 21.0627 15.7426 22.7096 16.165C26.6679 17.1795 28.8674 22.0426 27.6133 27.0049C26.9171 29.7595 25.2838 32.0727 23.1321 33.3509C22.0098 34.017 20.833 34.3562 19.6644 34.3562ZM21.2054 16.4296C20.1173 16.4296 19.0183 16.7461 17.9683 17.37C15.9199 18.5872 14.3625 20.7985 13.6959 23.4363C12.5027 28.1567 14.5557 32.7716 18.2712 33.7246C19.7981 34.1161 21.3982 33.8515 22.8997 32.9598C24.9482 31.7425 26.5056 29.5313 27.1722 26.8935C28.3654 22.1731 26.3123 17.5582 22.5969 16.6051C22.1376 16.4878 21.6724 16.4296 21.2054 16.4296Z" fill="#1F212B"/>
<path d="M16.9462 30.1732C16.8734 30.1732 16.8025 30.1386 16.7584 30.0741C16.7147 30.0099 16.7024 29.9895 16.6792 29.9499L16.646 29.8935C16.5815 29.7858 16.6169 29.6462 16.7243 29.5816C16.8325 29.5161 16.9716 29.5521 17.0362 29.6598L17.0721 29.7212C17.0903 29.7521 17.0994 29.7685 17.133 29.8176C17.204 29.9213 17.1776 30.0627 17.0739 30.1336C17.0353 30.1605 16.9907 30.1732 16.9462 30.1732Z" fill="#1F212B"/>
<path d="M19.9575 31.9795C19.6633 31.9795 19.3718 31.9431 19.0858 31.8699C18.3373 31.678 17.658 31.2319 17.121 30.5799C17.0414 30.483 17.055 30.3398 17.1519 30.2602C17.2492 30.1797 17.392 30.1943 17.472 30.2911C17.9536 30.8759 18.5342 31.2592 19.1981 31.4293C20.0539 31.6489 20.9728 31.487 21.8573 30.9614C23.306 30.1001 24.4782 28.3713 24.993 26.3356C25.8546 22.9275 24.6556 19.6677 22.3211 19.0693C21.4648 18.8501 20.5459 19.0115 19.6615 19.5372C18.2127 20.3984 17.0409 22.1272 16.5267 24.163C16.3602 24.8209 16.267 25.4871 16.2507 26.1428C16.2329 26.8276 16.2979 27.4892 16.4439 28.1085C16.4726 28.2308 16.3966 28.3531 16.2748 28.3818C16.152 28.4118 16.0301 28.3345 16.001 28.2126C15.8464 27.5556 15.7773 26.8553 15.7959 26.1314C15.8137 25.4421 15.911 24.7423 16.086 24.052C16.6294 21.9017 17.8794 20.0683 19.4296 19.147C20.4204 18.5582 21.4594 18.3795 22.4343 18.6291C25.0112 19.2898 26.3571 22.797 25.4345 26.447C24.8911 28.5973 23.6406 30.4316 22.0905 31.3524C21.3903 31.768 20.6664 31.9795 19.9575 31.9795Z" fill="#1F212B"/>
<path d="M10.6504 22.6499L13.4551 23.4534L10.6504 22.6499Z" fill="white"/>
<path d="M13.4546 23.6804C13.4337 23.6804 13.4128 23.6777 13.3919 23.6714L10.5872 22.8679C10.4662 22.8333 10.3967 22.7074 10.4312 22.5869C10.4653 22.4659 10.5908 22.3945 10.7122 22.4309L13.5169 23.2344C13.6379 23.2689 13.7074 23.3949 13.6729 23.5154C13.6442 23.6154 13.5533 23.6804 13.4546 23.6804Z" fill="#1F212B"/>
<path d="M12.2607 19.0449L15.0659 19.8484L12.2607 19.0449Z" fill="white"/>
<path d="M15.0669 20.0758C15.046 20.0758 15.0251 20.0731 15.0042 20.0667L12.1995 19.2628C12.0785 19.2282 12.009 19.1023 12.0435 18.9818C12.0781 18.8603 12.2045 18.7899 12.3245 18.8258L15.1292 19.6297C15.2502 19.6643 15.3197 19.7902 15.2852 19.9107C15.257 20.0112 15.1656 20.0758 15.0669 20.0758Z" fill="#1F212B"/>
<path d="M10.3765 26.6387L13.1811 27.4421L10.3765 26.6387Z" fill="white"/>
<path d="M13.1817 27.6694C13.1607 27.6694 13.1398 27.6667 13.1189 27.6603L10.3142 26.8568C10.1933 26.8223 10.1237 26.6963 10.1583 26.5758C10.1924 26.4548 10.3183 26.383 10.4393 26.4198L13.244 27.2233C13.3649 27.2579 13.4345 27.3838 13.3999 27.5043C13.3713 27.6044 13.2803 27.6694 13.1817 27.6694Z" fill="#1F212B"/>
<path d="M29.7691 33.6728L29.7281 32.3759C32.0854 30.5866 33.61 27.2777 33.4923 23.5354C33.3745 19.7931 31.6448 16.5751 29.1793 14.9209L29.1384 13.624L25.2974 13.7313V13.7327C25.2729 13.7332 25.2488 13.7327 25.2242 13.7336C20.8321 13.8564 17.631 18.4226 17.8051 23.9592C17.9793 29.4958 21.4619 33.9056 25.8544 33.7828C25.879 33.7819 25.9031 33.7805 25.9277 33.7796V33.781L29.7691 33.6728Z" fill="white" fill-opacity="0.5"/>
<path d="M25.7003 34.0145V34.0123C25.6912 34.0123 25.6825 34.0123 25.6734 34.0123C21.2968 34.0127 17.7564 29.6438 17.5777 23.9658C17.4763 20.7474 18.4913 17.7627 20.3619 15.7778C21.7143 14.3423 23.3935 13.5566 25.2178 13.5056L25.2974 13.7321L25.291 13.5047L29.3584 13.3901L29.403 14.7979C31.9548 16.5654 33.6055 19.8975 33.7196 23.528C33.8333 27.1584 32.3946 30.5774 29.9587 32.4849L30.0028 33.8931L25.7003 34.0145ZM28.9187 13.8576L25.246 13.9603C23.5304 14.0081 21.9612 14.7447 20.6934 16.0902C18.905 17.9877 17.9356 20.8538 18.0324 23.9522C18.2057 29.4556 21.6565 33.684 25.8481 33.5553L26.0818 33.5485L29.5344 33.4521L29.4971 32.2662L29.5908 32.1952C31.968 30.39 33.3763 27.0747 33.2653 23.543C33.1539 20.0103 31.5401 16.7791 29.0529 15.1099L28.956 15.0448L28.9187 13.8576Z" fill="#1F212B"/>
<path d="M29.3047 33.6782C24.9126 33.801 21.2108 29.4126 21.0366 23.8764C20.8625 18.3403 24.2824 13.7522 28.6745 13.6295C33.0665 13.5067 36.7683 17.8951 36.9425 23.4313C37.1162 28.9674 33.6968 33.5554 29.3047 33.6782Z" fill="white" fill-opacity="0.5"/>
<path d="M29.125 33.9078C24.6961 33.9078 20.9843 29.458 20.8087 23.8828C20.7101 20.7448 21.7409 17.7906 23.6375 15.7775C25.053 14.2756 26.7923 13.454 28.6671 13.4012C33.186 13.283 36.9911 17.771 37.1684 23.4231C37.2671 26.5615 36.2362 29.5158 34.3392 31.5288C32.9241 33.0307 31.1848 33.8524 29.3096 33.9051C29.2487 33.9069 29.1864 33.9078 29.125 33.9078ZM28.8531 13.8536C28.7953 13.8536 28.738 13.8546 28.6803 13.8564C26.9287 13.905 25.2995 14.678 23.969 16.0899C22.1547 18.0152 21.1684 20.8508 21.2634 23.8687C21.4308 29.1979 24.9403 33.4527 29.1245 33.4531C29.1823 33.4531 29.2396 33.4522 29.2973 33.4504C31.0489 33.4018 32.6781 32.6287 34.0086 31.2169C35.8229 29.2916 36.8092 26.456 36.7141 23.4376C36.5468 18.1084 33.0373 13.8536 28.8531 13.8536Z" fill="#1F212B"/>
<path d="M32.6758 29.5418C32.6244 29.5418 32.5726 29.5245 32.5303 29.489C32.4339 29.4085 32.4212 29.2653 32.5016 29.1689C32.5962 29.0557 32.6876 28.9379 32.7754 28.8156C32.8486 28.7133 32.9905 28.6901 33.0928 28.7638C33.1946 28.837 33.2178 28.9793 33.1446 29.0811C33.05 29.2126 32.9518 29.339 32.8504 29.4604C32.8054 29.5136 32.7408 29.5418 32.6758 29.5418Z" fill="#1F212B"/>
<path d="M29.4916 31.1788C26.6059 31.1788 24.1737 27.8958 24.0446 23.792C23.9677 21.3429 24.7366 19.0162 26.1021 17.5674C26.9729 16.6435 28.0183 16.1387 29.1255 16.1078C29.1614 16.1069 29.1974 16.1064 29.2324 16.1064C32.1175 16.1064 34.5498 19.389 34.6789 23.4928C34.7321 25.1934 34.3943 26.809 33.7008 28.1641C33.644 28.2759 33.5067 28.3205 33.3948 28.2632C33.283 28.2059 33.2388 28.069 33.2957 27.9572C33.9541 26.6699 34.2751 25.1307 34.2242 23.5069C34.1014 19.6023 31.8224 16.4661 29.1378 16.5625C28.1533 16.5903 27.218 17.0454 26.4322 17.8794C25.1477 19.2421 24.4247 21.4475 24.4979 23.7784C24.6207 27.683 26.9079 30.78 29.5843 30.7232C30.2591 30.7045 30.9075 30.4867 31.5105 30.077C31.6151 30.0066 31.756 30.0329 31.8265 30.1371C31.897 30.2412 31.8702 30.3822 31.7665 30.4526C31.0899 30.9128 30.3601 31.1565 29.597 31.1779C29.5629 31.1784 29.527 31.1788 29.4916 31.1788ZM21.1135 24.0621H17.9305C17.805 24.0621 17.7031 23.9602 17.7031 23.8347C17.7031 23.7092 17.805 23.6074 17.9305 23.6074H21.1135C21.239 23.6074 21.3408 23.7092 21.3408 23.8347C21.3408 23.9602 21.239 24.0621 21.1135 24.0621Z" fill="#1F212B"/>
<path d="M21.5685 19.9698H18.3856C18.2601 19.9698 18.1582 19.868 18.1582 19.7425C18.1582 19.617 18.2601 19.5151 18.3856 19.5151H21.5685C21.6941 19.5151 21.7959 19.617 21.7959 19.7425C21.7959 19.868 21.6941 19.9698 21.5685 19.9698Z" fill="#1F212B"/>
<path d="M22.0231 28.609H18.8401C18.7146 28.609 18.6128 28.5072 18.6128 28.3817C18.6128 28.2562 18.7146 28.1543 18.8401 28.1543H22.0231C22.1486 28.1543 22.2505 28.2562 22.2505 28.3817C22.2505 28.5072 22.1486 28.609 22.0231 28.609Z" fill="#1F212B"/>
<path d="M25.7043 34.178C21.1786 34.1784 17.5395 29.7141 17.3576 23.9119C17.2544 20.6339 18.2916 17.59 20.2032 15.5616C21.5978 14.081 23.3321 13.2707 25.2182 13.218L25.2191 13.2239C25.2428 13.2193 25.2669 13.2166 25.2914 13.2157L28.4658 13.1248C28.5331 13.1202 28.6008 13.1152 28.6691 13.1139C28.7359 13.1116 28.8059 13.1129 28.8764 13.1139L28.9364 13.1148L29.132 13.1084C29.1779 13.1107 29.2229 13.1134 29.2656 13.1248C33.665 13.3844 37.2304 17.8547 37.4032 23.3558C37.5755 28.8428 34.3139 33.4959 29.9554 34.0234C29.9027 34.0493 29.8463 34.0652 29.7877 34.067L25.9467 34.1743L25.8789 33.721L25.8976 34.1757C25.8335 34.1771 25.7684 34.178 25.7043 34.178ZM25.231 13.6722L25.2437 14.127C23.6049 14.1729 22.0903 14.8845 20.8653 16.1845C19.1183 18.0389 18.1711 20.8444 18.2666 23.8833C18.433 29.1861 21.6765 33.2695 25.683 33.2695C25.7384 33.2695 25.793 33.2685 25.8485 33.2667L25.9217 33.2635L29.6158 33.1612C29.6517 33.1467 29.6894 33.1367 29.729 33.133C33.6818 32.7347 36.6538 28.4522 36.4942 23.384C36.3346 18.3144 33.098 14.2043 29.1251 14.0278C29.1028 14.0269 29.0815 14.0242 29.0601 14.0201L28.9446 14.0237L28.8614 14.0228C28.8059 14.0219 28.7504 14.0206 28.6954 14.0224C28.6381 14.0242 28.5836 14.0283 28.5295 14.0319L28.4603 14.0369L25.3524 14.1238C25.3392 14.1251 25.326 14.126 25.3128 14.1265L25.231 13.6722Z" fill="#1F212B"/>
<path d="M28.329 25.4261C28.3381 25.4261 28.3568 25.4348 28.3845 25.452L28.3704 25.4452C28.5046 25.5316 28.6242 25.5989 28.7306 25.6485C28.837 25.698 28.9497 25.7335 29.0698 25.7544V23.6414L28.9552 23.5814C28.8151 23.5095 28.6814 23.434 28.5541 23.3545C28.4268 23.2749 28.3122 23.1867 28.2104 23.0912C28.1085 22.9957 28.0226 22.8938 27.9525 22.7861C27.8825 22.6783 27.8348 22.561 27.8093 22.4332C27.7925 22.3695 27.7829 22.3095 27.7807 22.254C27.7784 22.1981 27.7775 22.1386 27.7775 22.0749C27.7775 21.8875 27.8102 21.7239 27.8762 21.5843C27.9421 21.4451 28.0321 21.3264 28.1467 21.2282C28.2613 21.1305 28.3968 21.0532 28.5541 20.9949C28.711 20.9372 28.8829 20.8985 29.0698 20.8785V20.7108C29.0698 20.6312 29.0889 20.5634 29.1271 20.5075C29.1653 20.4516 29.2353 20.4238 29.3371 20.4238H29.3453C29.3453 20.4238 29.6868 20.6221 29.7082 20.8253L29.7018 20.9868C29.8205 21.0068 29.9424 21.0377 30.0679 21.0795C30.1929 21.1218 30.3343 21.1746 30.4912 21.2382L30.4721 21.2264C30.5444 21.25 30.6003 21.2801 30.6408 21.316C30.6808 21.3519 30.7054 21.4096 30.8886 21.4897V21.5256C30.714 21.5533 30.7063 21.5893 30.6917 21.6334C30.6772 21.6775 30.6544 21.7189 30.6249 21.7589C30.5953 21.7984 30.5612 21.8334 30.523 21.8634C30.4848 21.893 30.4426 21.908 30.3957 21.908C30.3575 21.908 30.3225 21.9053 30.2907 21.8994C30.2588 21.893 30.4339 21.8484 30.4339 21.8484V21.8544L30.1092 21.8184C29.986 21.7589 29.8505 21.7107 29.5245 21.6747V23.3076L29.7273 23.3194C30.0711 23.4831 30.3361 23.6646 30.523 23.8637C30.7099 24.0633 30.8332 24.2702 30.8923 24.4858C30.9177 24.5776 30.9359 24.6613 30.9464 24.7368C30.9568 24.8127 30.9623 24.8905 30.9623 24.97C30.9623 25.1538 30.9305 25.3188 30.8668 25.4666C30.8031 25.6144 30.7158 25.7426 30.6058 25.8526C30.4953 25.9622 30.363 26.0523 30.2079 26.1218C30.0529 26.1914 29.8842 26.2382 29.5245 26.2623V26.693C29.7018 26.7725 29.6845 26.8403 29.6509 26.8962C29.6168 26.9521 29.4408 27.2454 29.4408 27.2454H29.4508C29.3353 27.2454 29.243 27.2163 29.1739 27.1581C29.1048 27.0999 29.0702 27.0153 29.0702 26.9035V26.4715C28.821 26.4456 28.6064 26.3942 28.4264 26.3169C28.2463 26.2396 28.0617 26.1423 27.8725 26.0263C27.8216 25.9877 27.787 25.9513 27.7688 25.9172C27.7502 25.8827 27.7293 25.8354 27.7065 25.7749V25.7362C27.7065 25.6976 27.7193 25.6535 27.7447 25.6039C27.7697 25.5548 27.8011 25.5071 27.8384 25.462C27.8752 25.417 27.9143 25.3784 27.9562 25.3461C27.9976 25.3138 28.0367 25.2974 28.074 25.2974C28.1249 25.2974 28.1699 25.312 28.209 25.3397C28.2481 25.3675 28.2858 25.3966 28.3231 25.4266L28.329 25.4261C28.3381 25.4307 28.3454 25.4334 28.35 25.4334L28.329 25.4261ZM28.7169 22.751C28.8165 22.8393 28.9343 22.9166 29.0702 22.9848V21.6747C28.9093 21.707 28.7742 21.7684 28.666 21.8598C28.5578 21.9517 28.5037 22.0749 28.5037 22.2309C28.5037 22.255 28.5046 22.2809 28.5068 22.3091C28.5087 22.3368 28.5141 22.3709 28.5228 22.4105C28.5523 22.5501 28.6169 22.6637 28.7169 22.751ZM29.8301 24.3275C29.745 24.2298 29.6432 24.1452 29.5245 24.0734V25.5621C29.6732 25.5066 29.7973 25.4207 29.8969 25.3052C29.9965 25.1897 30.0465 25.0542 30.0465 24.8987C30.0465 24.855 30.0424 24.815 30.0338 24.7791C30.0251 24.7431 30.0165 24.7059 30.0083 24.6654C29.9747 24.5376 29.9151 24.4248 29.8301 24.3275Z" fill="#1F212B"/>
</svg>
