<svg width="46" height="46" viewBox="0 0 46 46" fill="none" xmlns="http://www.w3.org/2000/svg">
<path d="M32.3513 39.9741L13.4049 39.9921C9.23671 39.9959 5.82352 36.5893 5.81878 32.4211L5.80078 13.4747C5.797 9.30653 9.20355 5.89334 13.3718 5.88861L32.3181 5.87061C36.4863 5.86682 39.8995 9.27338 39.9042 13.4416L39.9222 32.3879C39.927 36.5571 36.5195 39.9703 32.3513 39.9741Z" fill="url(#paint0_radial_639_2006)"/>
<path d="M32.3513 39.9741L13.4049 39.9921C9.23671 39.9959 5.82352 36.5893 5.81878 32.4211L5.80078 13.4747C5.797 9.30653 9.20355 5.89334 13.3718 5.88861L32.3181 5.87061C36.4863 5.86682 39.8995 9.27338 39.9042 13.4416L39.9222 32.3879C39.927 36.5571 36.5195 39.9703 32.3513 39.9741Z" fill="url(#paint1_radial_639_2006)"/>
<path d="M22.8622 29.5632C19.2065 29.5632 16.231 26.5887 16.231 22.932C16.231 19.2754 19.2065 16.3008 22.8622 16.3008C26.5179 16.3008 29.4934 19.2754 29.4934 22.932C29.4934 26.5887 26.5179 29.5632 22.8622 29.5632ZM22.8622 18.1954C20.2504 18.1954 18.1256 20.3203 18.1256 22.932C18.1256 25.5438 20.2504 27.6686 22.8622 27.6686C25.4739 27.6686 27.5988 25.5438 27.5988 22.932C27.5988 20.3203 25.4739 18.1954 22.8622 18.1954Z" fill="white"/>
<path d="M29.9669 17.2482C30.7517 17.2482 31.3879 16.612 31.3879 15.8272C31.3879 15.0424 30.7517 14.4062 29.9669 14.4062C29.1821 14.4062 28.5459 15.0424 28.5459 15.8272C28.5459 16.612 29.1821 17.2482 29.9669 17.2482Z" fill="white"/>
<path d="M28.5459 35.247H17.1781C13.5224 35.247 10.5469 32.2724 10.5469 28.6158V17.2479C10.5469 13.5913 13.5224 10.6167 17.1781 10.6167H28.5459C32.2016 10.6167 35.1772 13.5913 35.1772 17.2479V28.6158C35.1772 32.2724 32.2016 35.247 28.5459 35.247ZM17.1781 12.5113C14.5663 12.5113 12.4415 14.6362 12.4415 17.2479V28.6158C12.4415 31.2275 14.5663 33.3523 17.1781 33.3523H28.5459C31.1577 33.3523 33.2825 31.2275 33.2825 28.6158V17.2479C33.2825 14.6362 31.1577 12.5113 28.5459 12.5113H17.1781Z" fill="white"/>
<defs>
<radialGradient id="paint0_radial_639_2006" cx="0" cy="0" r="1" gradientUnits="userSpaceOnUse" gradientTransform="translate(18.4854 40.0167) scale(42.5337 42.5336)">
<stop stop-color="#FFDD55"/>
<stop offset="0.328" stop-color="#FF543F"/>
<stop offset="0.348" stop-color="#FC5245"/>
<stop offset="0.504" stop-color="#E64771"/>
<stop offset="0.643" stop-color="#D53E91"/>
<stop offset="0.761" stop-color="#CC39A4"/>
<stop offset="0.841" stop-color="#C837AB"/>
</radialGradient>
<radialGradient id="paint1_radial_639_2006" cx="0" cy="0" r="1" gradientUnits="userSpaceOnUse" gradientTransform="translate(11.2914 5.4446) scale(28.2424 18.8179)">
<stop stop-color="#4168C9"/>
<stop offset="0.999" stop-color="#4168C9" stop-opacity="0"/>
</radialGradient>
</defs>
</svg>
