<svg width="69" height="69" viewBox="0 0 69 69" fill="none" xmlns="http://www.w3.org/2000/svg">
<path d="M19.8431 24.9962C17.9497 26.8876 16.4628 29.5013 15.6886 32.5617C13.8504 39.8353 16.7404 46.8763 22.5052 48.3544C22.5373 48.3625 22.5693 48.3694 22.6021 48.3775L22.6014 48.3789L27.6426 49.6714L27.6514 49.6366C33.2328 50.6441 39.0297 46.0265 40.8031 39.0107C42.5765 31.9956 39.677 25.1483 34.2968 23.3449L34.3002 23.3313L34.0192 23.259C33.9108 23.2269 33.8037 23.1928 33.6932 23.1642C33.5827 23.1355 33.4729 23.1144 33.3624 23.0905L29.2584 22.0381L29.2577 22.0394C29.2256 22.0306 29.1943 22.0217 29.1622 22.0135C27.2326 21.519 25.2908 21.7223 23.4929 22.4842" fill="#EDBE00"/>
<path d="M29.1901 50.4566C28.7025 50.4566 28.2134 50.4191 27.7244 50.3413C27.6412 50.3556 27.5559 50.3543 27.4727 50.3324L22.4315 49.0392C22.4199 49.0358 22.409 49.0331 22.3981 49.029L22.3285 49.0126C16.2752 47.4609 13.0647 40.1601 15.027 32.394C15.8127 29.2852 17.3112 26.5603 19.3608 24.5134C19.6269 24.2467 20.0593 24.2467 20.3253 24.5134C20.5913 24.7801 20.5913 25.2118 20.3246 25.4778C18.4496 27.3515 17.0752 29.8581 16.3502 32.7282C14.5741 39.7556 17.3522 46.328 22.6743 47.6928C22.7064 47.701 22.7378 47.7113 22.7691 47.7242L22.7705 47.7174L27.6071 48.9574C27.6623 48.9526 27.7162 48.9547 27.7721 48.9649C33.0295 49.9137 38.4663 45.4686 40.1408 38.8437C41.8159 32.216 39.1531 25.6927 34.0792 23.9916C34.0513 23.9821 34.024 23.9712 33.9981 23.9582L33.8494 23.92C33.8391 23.9173 33.7675 23.8961 33.758 23.8927C33.6809 23.8695 33.6038 23.8463 33.5254 23.8259C33.451 23.8061 33.3801 23.7911 33.3092 23.7768L33.2178 23.7577L29.1397 22.7121C29.1199 22.7086 29.0994 22.7039 29.0803 22.6984L29.1615 22.0245L29.1601 22.0238L28.9937 22.6745C27.281 22.2353 25.4708 22.3874 23.7595 23.1131C23.4117 23.2604 23.012 23.0981 22.8653 22.7509C22.7187 22.4044 22.8803 22.0041 23.2275 21.8567C25.2171 21.0144 27.3281 20.8411 29.3327 21.3534C29.3368 21.3547 29.375 21.365 29.3914 21.3691C29.4043 21.3718 29.4166 21.3745 29.4289 21.3779L33.5909 22.4426C33.6829 22.4617 33.775 22.4815 33.8657 22.5054C33.9612 22.5293 34.0588 22.5593 34.1563 22.5886L34.4694 22.6711C34.5335 22.6875 34.5928 22.7127 34.6467 22.7441C40.3065 24.7371 43.2988 31.92 41.4647 39.1786C39.7861 45.8178 34.5921 50.4566 29.1901 50.4566Z" fill="#1F212B"/>
<path d="M27.8578 50.1657L22.3917 48.764C22.387 48.7627 22.3829 48.7613 22.3781 48.7606L22.1817 48.7101L22.1823 48.7074C16.4393 47.0868 13.4327 40.0479 15.3262 32.5567L15.9878 32.7231C14.1653 39.9353 17.0518 46.6905 22.5582 48.1024L22.9592 48.1945L22.9578 48.2054L27.364 49.3342L27.7542 47.7914L27.9179 47.728C31.6767 46.2683 34.7385 42.4856 35.909 37.8557C37.0794 33.2251 36.1852 28.4268 33.5763 25.3336L33.4631 25.1999L33.8532 23.6557L29.4737 22.533V22.5371L29.1381 22.4491L29.1749 22.1067L28.8953 22.0365L28.9785 21.7036L29.2124 21.763V21.7623L29.3113 21.7875L34.6819 23.1646L34.2106 25.0294C36.8721 28.2904 37.7772 33.2497 36.5706 38.0228C35.3633 42.7966 32.2149 46.7158 28.3291 48.2982L27.8578 50.1657Z" fill="#1F212B"/>
<path d="M27.005 49.583C21.2402 48.1049 18.0576 41.0107 19.8958 33.7371C21.734 26.4635 27.8972 21.7654 33.662 23.2435C39.4269 24.7215 42.6094 31.8157 40.7712 39.0893C38.933 46.3629 32.7699 51.061 27.005 49.583Z" fill="#EDBE00"/>
<path d="M29.1792 50.2006C28.4215 50.2006 27.6657 50.1051 26.9202 49.9141C20.9828 48.3924 17.6837 41.0977 19.5648 33.6543C20.609 29.5223 23.059 26.0526 26.2866 24.1353C28.6977 22.703 31.2766 22.2801 33.7471 22.9137C39.6845 24.4354 42.9836 31.7302 41.1025 39.1736C40.0583 43.3056 37.6083 46.7752 34.3807 48.6925C32.6974 49.6918 30.9322 50.2006 29.1792 50.2006ZM31.4908 23.3107C29.8586 23.3107 28.21 23.7854 26.6351 24.7212C23.5624 26.5471 21.2263 29.864 20.2264 33.8207C18.4367 40.9013 21.5162 47.8236 27.0894 49.2532C29.3798 49.8405 31.78 49.4435 34.0322 48.106C37.1049 46.2801 39.441 42.9632 40.4409 39.0065C42.2306 31.9259 39.1511 25.0036 33.5779 23.574C32.889 23.398 32.1913 23.3107 31.4908 23.3107Z" fill="#1F212B"/>
<path d="M25.1016 43.9243C24.9925 43.9243 24.8861 43.8725 24.8199 43.7756C24.7544 43.6795 24.736 43.6488 24.7012 43.5894L24.6514 43.5049C24.5546 43.3432 24.6078 43.1338 24.7688 43.037C24.9311 42.9388 25.1398 42.9926 25.2367 43.1543L25.2905 43.2464C25.3178 43.2927 25.3315 43.3173 25.3819 43.391C25.4883 43.5465 25.4488 43.7586 25.2933 43.865C25.2353 43.9052 25.1685 43.9243 25.1016 43.9243Z" fill="#1F212B"/>
<path d="M29.6188 46.6347C29.1775 46.6347 28.7403 46.5802 28.3113 46.4704C27.1886 46.1825 26.1696 45.5134 25.3641 44.5353C25.2447 44.3901 25.2652 44.1752 25.4105 44.0558C25.5564 43.9351 25.7706 43.9569 25.8906 44.1022C26.6129 44.9794 27.484 45.5543 28.4798 45.8094C29.7634 46.1389 31.1419 45.8961 32.4685 45.1076C34.6416 43.8157 36.4 41.2225 37.1721 38.1689C38.4646 33.0568 36.666 28.167 33.1642 27.2694C31.8799 26.9407 30.5014 27.1828 29.1748 27.9713C27.0017 29.2631 25.244 31.8563 24.4726 34.91C24.223 35.8969 24.0832 36.8962 24.0586 37.8797C24.032 38.9069 24.1295 39.8993 24.3485 40.8283C24.3914 41.0118 24.2775 41.1952 24.0947 41.2382C23.9106 41.2832 23.7278 41.1673 23.6841 40.9845C23.4522 39.9989 23.3486 38.9485 23.3765 37.8626C23.4031 36.8286 23.5491 35.7789 23.8117 34.7435C24.6268 31.518 26.5018 28.7679 28.8269 27.3861C30.3132 26.5028 31.8717 26.2347 33.3341 26.6092C37.1993 27.6002 39.2183 32.861 37.8344 38.336C37.0193 41.5615 35.1436 44.313 32.8184 45.6942C31.768 46.3176 30.6822 46.6347 29.6188 46.6347Z" fill="#1F212B"/>
<path d="M15.6567 32.6392L19.8637 33.8444L15.6567 32.6392Z" fill="white"/>
<path d="M19.8648 34.1855C19.8334 34.1855 19.802 34.1814 19.7706 34.1718L15.5636 32.9666C15.3822 32.9148 15.2779 32.7258 15.3297 32.5451C15.3809 32.3637 15.5691 32.2566 15.7512 32.3111L19.9582 33.5164C20.1396 33.5682 20.244 33.7571 20.1922 33.9379C20.1492 34.0879 20.0128 34.1855 19.8648 34.1855Z" fill="#1F212B"/>
<path d="M18.0752 27.2324L22.2829 28.4376L18.0752 27.2324Z" fill="white"/>
<path d="M22.2827 28.7787C22.2514 28.7787 22.22 28.7746 22.1886 28.7651L17.9816 27.5592C17.8002 27.5074 17.6958 27.3184 17.7477 27.1377C17.7995 26.9556 17.9891 26.8498 18.1692 26.9037L22.3762 28.1096C22.5576 28.1615 22.662 28.3504 22.6101 28.5311C22.5678 28.6819 22.4308 28.7787 22.2827 28.7787Z" fill="#1F212B"/>
<path d="M15.2471 38.6226L19.4541 39.8278L15.2471 38.6226Z" fill="white"/>
<path d="M19.4546 40.1691C19.4232 40.1691 19.3919 40.165 19.3605 40.1555L15.1535 38.9503C14.9721 38.8984 14.8677 38.7095 14.9195 38.5287C14.9707 38.3473 15.1596 38.2395 15.3411 38.2948L19.5481 39.5C19.7295 39.5518 19.8338 39.7408 19.782 39.9215C19.739 40.0716 19.6026 40.1691 19.4546 40.1691Z" fill="#1F212B"/>
<path d="M44.335 49.1737L44.2736 47.2284C47.8095 44.5445 50.0964 39.5811 49.9198 33.9676C49.7431 28.3542 47.1485 23.5272 43.4504 21.0458L43.389 19.1006L37.6275 19.2616V19.2636C37.5907 19.2643 37.5545 19.2636 37.5177 19.265C30.9296 19.4491 26.1278 26.2985 26.3891 34.6033C26.6503 42.9082 31.8743 49.5229 38.4631 49.3388C38.4999 49.3374 38.536 49.3354 38.5729 49.334V49.336L44.335 49.1737Z" fill="#EDBE00"/>
<path d="M38.2318 49.6866V49.6832C38.2182 49.6832 38.2052 49.6832 38.1916 49.6832C31.6266 49.6839 26.316 43.1306 26.048 34.6136C25.8959 29.7859 27.4183 25.3088 30.2243 22.3315C32.2528 20.1783 34.7717 18.9996 37.5081 18.9232L37.6275 19.2629L37.6179 18.9219L43.719 18.75L43.7859 20.8617C47.6137 23.5129 50.0896 28.5111 50.2608 33.9567C50.4313 39.4024 48.2732 44.5309 44.6194 47.3921L44.6855 49.5045L38.2318 49.6866ZM43.0595 19.4512L37.5504 19.6053C34.977 19.6769 32.6231 20.7819 30.7215 22.8001C28.039 25.6464 26.5848 29.9455 26.7301 34.5931C26.9899 42.8482 32.1662 49.1908 38.4535 48.9977L38.8041 48.9875L43.983 48.8429L43.9271 47.0641L44.0676 46.9577C47.6334 44.2498 49.7458 39.2769 49.5794 33.9792C49.4123 28.6802 46.9916 23.8335 43.2607 21.3296L43.1154 21.232L43.0595 19.4512Z" fill="#1F212B"/>
<path d="M43.6387 49.1804C37.0506 49.3646 31.4978 42.7819 31.2366 34.4777C30.9754 26.1735 36.1052 19.2914 42.6933 19.1073C49.2814 18.9231 54.8341 25.5058 55.0954 33.81C55.3559 42.1142 50.2268 48.9963 43.6387 49.1804Z" fill="#EDBE00"/>
<path d="M43.3698 49.5256C36.7265 49.5256 31.1588 42.8509 30.8955 34.488C30.7475 29.781 32.2937 25.3496 35.1386 22.3301C37.2619 20.0772 39.8708 18.8448 42.683 18.7656C49.4614 18.5883 55.169 25.3203 55.435 33.7984C55.583 38.5061 54.0367 42.9375 51.1911 45.957C49.0685 48.2099 46.4596 49.4424 43.6468 49.5215C43.5554 49.5242 43.4619 49.5256 43.3698 49.5256ZM42.962 19.4443C42.8753 19.4443 42.7894 19.4457 42.7028 19.4484C40.0754 19.5214 37.6316 20.6809 35.6359 22.7987C32.9144 25.6866 31.435 29.94 31.5775 34.4669C31.8285 42.4607 37.0928 48.8428 43.3692 48.8435C43.4558 48.8435 43.5417 48.8422 43.6283 48.8394C46.2557 48.7664 48.6995 47.6069 50.6953 45.4891C53.4167 42.6012 54.8961 38.3478 54.7536 33.8203C54.5026 25.8264 49.2384 19.4443 42.962 19.4443Z" fill="#1F212B"/>
<path d="M48.6956 42.9782C48.6185 42.9782 48.5408 42.9523 48.4773 42.8991C48.3327 42.7783 48.3136 42.5635 48.4343 42.4189C48.5762 42.249 48.7133 42.0724 48.845 41.8889C48.9548 41.7354 49.1676 41.7007 49.321 41.8112C49.4738 41.921 49.5086 42.1345 49.3988 42.2872C49.2569 42.4844 49.1096 42.674 48.9575 42.8561C48.89 42.9359 48.7931 42.9782 48.6956 42.9782Z" fill="#1F212B"/>
<path d="M43.919 45.4337C39.5906 45.4337 35.9422 40.5092 35.7485 34.3535C35.6332 30.6799 36.7866 27.1898 38.8348 25.0167C40.141 23.6307 41.7091 22.8736 43.3699 22.8272C43.4238 22.8259 43.4777 22.8252 43.5302 22.8252C47.8579 22.8252 51.5063 27.7491 51.7 33.9047C51.7798 36.4557 51.273 38.8791 50.2329 40.9116C50.1476 41.0794 49.9416 41.1463 49.7739 41.0603C49.6061 40.9744 49.5399 40.7691 49.6252 40.6013C50.6128 38.6703 51.0943 36.3615 51.018 33.9259C50.8338 28.0689 47.4153 23.3647 43.3883 23.5093C41.9116 23.5509 40.5086 24.2337 39.33 25.4846C37.4032 27.5287 36.3187 30.8368 36.4285 34.3331C36.6126 40.19 40.0435 44.8356 44.0581 44.7503C45.0703 44.7223 46.0429 44.3956 46.9474 43.7811C47.1042 43.6754 47.3157 43.7149 47.4214 43.8711C47.5271 44.0273 47.4869 44.2388 47.3314 44.3445C46.3165 45.0347 45.2217 45.4003 44.0772 45.4324C44.0261 45.4331 43.9722 45.4337 43.919 45.4337ZM31.3518 34.7587H26.5774C26.3891 34.7587 26.2363 34.6059 26.2363 34.4176C26.2363 34.2294 26.3891 34.0766 26.5774 34.0766H31.3518C31.5401 34.0766 31.6929 34.2294 31.6929 34.4176C31.6929 34.6059 31.5401 34.7587 31.3518 34.7587Z" fill="#1F212B"/>
<path d="M32.034 28.6196H27.2595C27.0712 28.6196 26.9185 28.4668 26.9185 28.2785C26.9185 28.0903 27.0712 27.9375 27.2595 27.9375H32.034C32.2222 27.9375 32.375 28.0903 32.375 28.2785C32.375 28.4668 32.2222 28.6196 32.034 28.6196Z" fill="#1F212B"/>
<path d="M32.7161 41.5786H27.9416C27.7534 41.5786 27.6006 41.4258 27.6006 41.2375C27.6006 41.0493 27.7534 40.8965 27.9416 40.8965H32.7161C32.9044 40.8965 33.0571 41.0493 33.0571 41.2375C33.0571 41.4258 32.9044 41.5786 32.7161 41.5786Z" fill="#1F212B"/>
<path d="M38.2396 49.931C31.451 49.9317 25.9924 43.2351 25.7195 34.5319C25.5647 29.6149 27.1205 25.0491 29.9879 22.0064C32.0798 19.7856 34.6812 18.5702 37.5105 18.491L37.5118 18.4999C37.5473 18.4931 37.5834 18.489 37.6203 18.4876L42.3818 18.3512C42.4828 18.3444 42.5844 18.3369 42.6867 18.3348C42.787 18.3314 42.892 18.3335 42.9977 18.3348L43.0877 18.3362L43.381 18.3267C43.4499 18.3301 43.5175 18.3342 43.5816 18.3512C50.1806 18.7407 55.5287 25.4461 55.7879 33.6978C56.0464 41.9283 51.1539 48.9079 44.6163 49.6991C44.5371 49.738 44.4526 49.7619 44.3646 49.7646L38.6031 49.9256L38.5015 49.2455L38.5295 49.9276C38.4333 49.9297 38.3358 49.931 38.2396 49.931ZM37.5296 19.1724L37.5487 19.8545C35.0905 19.9234 32.8185 20.9908 30.981 22.9409C28.3605 25.7223 26.9398 29.9307 27.083 34.489C27.3326 42.4433 32.1978 48.5682 38.2075 48.5682C38.2908 48.5682 38.3726 48.5669 38.4558 48.5642L38.5656 48.5594L44.1068 48.4059C44.1606 48.3841 44.2173 48.3691 44.2766 48.3636C50.2058 47.7661 54.6638 41.3424 54.4244 33.7401C54.185 26.1357 49.33 19.9704 43.3708 19.7058C43.3374 19.7044 43.3053 19.7003 43.2733 19.6942L43.1 19.6997L42.9752 19.6983C42.892 19.6969 42.8088 19.6949 42.7262 19.6976C42.6403 19.7003 42.5585 19.7065 42.4773 19.7119L42.3736 19.7194L37.7117 19.8497C37.6919 19.8518 37.6721 19.8531 37.6523 19.8538L37.5296 19.1724Z" fill="#1F212B"/>
<path d="M42.1764 36.8042C42.1901 36.8042 42.218 36.8172 42.2596 36.8431L42.2385 36.8329C42.4397 36.9625 42.6191 37.0634 42.7787 37.1378C42.9383 37.2121 43.1075 37.2653 43.2875 37.2967V34.1271L43.1156 34.0371C42.9056 33.9293 42.705 33.8161 42.5141 33.6967C42.3231 33.5774 42.1512 33.445 41.9984 33.3018C41.8456 33.1586 41.7167 33.0058 41.6117 32.8441C41.5066 32.6825 41.435 32.5065 41.3968 32.3148C41.3716 32.2194 41.3573 32.1293 41.3539 32.0461C41.3504 31.9622 41.3491 31.8729 41.3491 31.7774C41.3491 31.4964 41.3982 31.2508 41.4971 31.0414C41.596 30.8327 41.731 30.6547 41.9029 30.5074C42.0748 30.3607 42.2781 30.2448 42.5141 30.1575C42.7494 30.0708 43.0072 30.0129 43.2875 29.9829V29.7312C43.2875 29.6118 43.3162 29.5102 43.3735 29.4263C43.4308 29.3424 43.5358 29.3008 43.6886 29.3008H43.7009C43.7009 29.3008 44.2131 29.5982 44.2451 29.903L44.2356 30.1452C44.4136 30.1752 44.5964 30.2216 44.7847 30.2843C44.9722 30.3478 45.1844 30.4269 45.4197 30.5224L45.391 30.5046C45.4995 30.5401 45.5834 30.5851 45.6441 30.639C45.7041 30.6929 45.7409 30.7795 46.0158 30.8996V30.9534C45.7539 30.995 45.7423 31.0489 45.7205 31.1151C45.6986 31.1812 45.6645 31.2433 45.6202 31.3033C45.5759 31.3627 45.5247 31.4152 45.4674 31.4602C45.4101 31.5045 45.3467 31.5271 45.2764 31.5271C45.2191 31.5271 45.1666 31.523 45.1189 31.5141C45.0711 31.5045 45.3337 31.4377 45.3337 31.4377V31.4466L44.8467 31.3927C44.6619 31.3033 44.4586 31.231 43.9696 31.1772V33.6265L44.2738 33.6442C44.7894 33.8897 45.1871 34.1619 45.4674 34.4606C45.7477 34.7601 45.9326 35.0704 46.0213 35.3937C46.0595 35.5315 46.0867 35.657 46.1024 35.7702C46.1181 35.8841 46.1263 36.0007 46.1263 36.1201C46.1263 36.3957 46.0786 36.6433 45.9831 36.8649C45.8876 37.0866 45.7566 37.2789 45.5915 37.444C45.4258 37.6084 45.2273 37.7434 44.9947 37.8478C44.7622 37.9521 44.5091 38.0224 43.9696 38.0586V38.7045C44.2356 38.8238 44.2097 38.9255 44.1592 39.0094C44.108 39.0933 43.8441 39.5332 43.8441 39.5332H43.8591C43.6858 39.5332 43.5474 39.4895 43.4437 39.4022C43.34 39.3149 43.2882 39.1881 43.2882 39.0203V38.3723C42.9144 38.3334 42.5925 38.2564 42.3224 38.1404C42.0523 38.0244 41.7754 37.8785 41.4916 37.7046C41.4152 37.6466 41.3634 37.592 41.3361 37.5409C41.3082 37.489 41.2768 37.4181 41.2427 37.3274V37.2694C41.2427 37.2114 41.2618 37.1453 41.3 37.0709C41.3375 36.9973 41.3845 36.9256 41.4405 36.8581C41.4957 36.7906 41.5544 36.7326 41.6171 36.6842C41.6792 36.6358 41.7379 36.6112 41.7938 36.6112C41.8702 36.6112 41.9377 36.633 41.9964 36.6746C42.055 36.7162 42.1116 36.7599 42.1676 36.8049L42.1764 36.8042C42.1901 36.811 42.201 36.8151 42.2078 36.8151L42.1764 36.8042ZM42.7582 32.7916C42.9076 32.9239 43.0843 33.0399 43.2882 33.1422V31.1772C43.0467 31.2256 42.8442 31.3177 42.6818 31.4548C42.5195 31.5925 42.4383 31.7774 42.4383 32.0113C42.4383 32.0475 42.4397 32.0864 42.4431 32.1286C42.4458 32.1702 42.454 32.2214 42.467 32.2807C42.5113 32.4901 42.6082 32.6607 42.7582 32.7916ZM44.4279 35.1563C44.3004 35.0097 44.1476 34.8828 43.9696 34.7751V37.0082C44.1926 36.925 44.3788 36.796 44.5282 36.6228C44.6776 36.4496 44.7526 36.2463 44.7526 36.013C44.7526 35.9475 44.7465 35.8875 44.7335 35.8336C44.7205 35.7798 44.7076 35.7238 44.6953 35.6631C44.6448 35.4715 44.5555 35.3023 44.4279 35.1563Z" fill="#1F212B"/>
</svg>
