<svg width="46" height="47" viewBox="0 0 46 47" fill="none" xmlns="http://www.w3.org/2000/svg">
<path d="M13.2128 17.5543C11.9505 18.8152 10.9592 20.5577 10.4431 22.598C9.21768 27.447 11.1443 32.141 14.9875 33.1264C15.0089 33.1318 15.0303 33.1364 15.0521 33.1418L15.0516 33.1427L18.4124 34.0044L18.4183 33.9812C22.1393 34.6528 26.0039 31.5744 27.1861 26.8973C28.3684 22.2205 26.4354 17.6557 22.8486 16.4534L22.8509 16.4443L22.6635 16.3961C22.5912 16.3748 22.5198 16.352 22.4462 16.3329C22.3725 16.3138 22.2993 16.2997 22.2256 16.2838L19.4896 15.5822L19.4892 15.5831C19.4678 15.5772 19.4469 15.5713 19.4255 15.5658C18.1391 15.2362 16.8446 15.3717 15.646 15.8796" fill="#EDBE00"/>
<path d="M19.4448 34.5277C19.1197 34.5277 18.7937 34.5027 18.4676 34.4509C18.4121 34.4604 18.3553 34.4595 18.2998 34.4449L14.9391 33.5828C14.9313 33.5805 14.924 33.5787 14.9168 33.576L14.8704 33.5651C10.8348 32.5306 8.69448 27.6634 10.0027 22.486C10.5265 20.4134 11.5255 18.5968 12.8919 17.2322C13.0693 17.0544 13.3576 17.0544 13.5349 17.2322C13.7122 17.41 13.7122 17.6979 13.5344 17.8752C12.2844 19.1243 11.3682 20.7954 10.8848 22.7088C9.70076 27.3937 11.5528 31.7753 15.1009 32.6852C15.1223 32.6907 15.1432 32.6975 15.1641 32.7061L15.165 32.7016L18.3894 33.5282C18.4262 33.5251 18.4622 33.5264 18.4995 33.5332C22.0044 34.1657 25.6289 31.2024 26.7452 26.7858C27.862 22.3673 26.0868 18.0184 22.7042 16.8844C22.6855 16.878 22.6674 16.8707 22.6501 16.8621L22.5509 16.8366C22.5441 16.8348 22.4964 16.8207 22.49 16.8184C22.4386 16.803 22.3872 16.7875 22.335 16.7739C22.2854 16.7607 22.2381 16.7507 22.1908 16.7411L22.1299 16.7284L19.4112 16.0313C19.398 16.0291 19.3843 16.0259 19.3716 16.0222L19.4257 15.573L19.4248 15.5725L19.3138 16.0063C18.1721 15.7135 16.9653 15.8149 15.8244 16.2987C15.5925 16.3969 15.326 16.2887 15.2282 16.0573C15.1305 15.8263 15.2383 15.5593 15.4697 15.4611C16.7961 14.8996 18.2034 14.7841 19.5398 15.1256C19.5426 15.1265 19.568 15.1333 19.5789 15.136C19.5876 15.1378 19.5958 15.1396 19.6039 15.1419L22.3786 15.8517C22.44 15.8645 22.5014 15.8776 22.5619 15.8936C22.6255 15.9095 22.6905 15.9295 22.7556 15.949L22.9643 16.0041C23.007 16.015 23.0466 16.0318 23.0825 16.0527C26.8557 17.3814 28.8505 22.17 27.6278 27.009C26.5088 31.4352 23.0461 34.5277 19.4448 34.5277Z" fill="#1F212B"/>
<path d="M18.5566 34.3336L14.9125 33.3992C14.9093 33.3983 14.9066 33.3974 14.9034 33.3969L14.7725 33.3632L14.7729 33.3614C10.9442 32.281 8.93987 27.5884 10.2021 22.5943L10.6432 22.7052C9.42823 27.5134 11.3526 32.0168 15.0235 32.9581L15.2908 33.0195L15.2899 33.0268L18.2274 33.7793L18.4875 32.7507L18.5966 32.7085C21.1025 31.7354 23.1437 29.2135 23.924 26.1269C24.7043 23.0399 24.1082 19.841 22.3689 17.7789L22.2934 17.6897L22.5535 16.6603L19.6338 15.9118V15.9145L19.4101 15.8559L19.4346 15.6276L19.2482 15.5808L19.3037 15.3589L19.4596 15.3984V15.398L19.5256 15.4148L23.106 16.3329L22.7918 17.5761C24.5661 19.75 25.1695 23.0563 24.3651 26.2383C23.5602 29.4209 21.4613 32.0337 18.8708 33.0886L18.5566 34.3336Z" fill="#1F212B"/>
<path d="M17.988 33.945C14.1448 32.9596 12.0231 28.2301 13.2486 23.3811C14.474 18.532 18.5828 15.3999 22.426 16.3853C26.2693 17.3707 28.391 22.1001 27.1655 26.9492C25.9401 31.7983 21.8313 34.9303 17.988 33.945Z" fill="#EDBE00"/>
<path d="M19.4374 34.3562C18.9322 34.3562 18.4284 34.2926 17.9314 34.1653C13.9731 33.1508 11.7736 28.2876 13.0277 23.3254C13.7239 20.5707 15.3572 18.2576 17.5089 16.9794C19.1163 16.0245 20.8356 15.7426 22.4826 16.165C26.4409 17.1795 28.6403 22.0426 27.3862 27.0049C26.69 29.7595 25.0567 32.0727 22.905 33.3509C21.7828 34.017 20.606 34.3562 19.4374 34.3562ZM20.9784 16.4296C19.8903 16.4296 18.7912 16.7461 17.7413 17.37C15.6928 18.5872 14.1354 20.7985 13.4688 23.4363C12.2756 28.1567 14.3287 32.7716 18.0441 33.7246C19.5711 34.1161 21.1712 33.8515 22.6727 32.9598C24.7211 31.7425 26.2785 29.5313 26.9451 26.8935C28.1383 22.1731 26.0853 17.5582 22.3698 16.6051C21.9106 16.4878 21.4454 16.4296 20.9784 16.4296Z" fill="#1F212B"/>
<path d="M16.7191 30.1732C16.6464 30.1732 16.5754 30.1386 16.5313 30.0741C16.4877 30.0099 16.4754 29.9895 16.4522 29.9499L16.419 29.8935C16.3544 29.7858 16.3899 29.6462 16.4972 29.5816C16.6054 29.5161 16.7446 29.5521 16.8091 29.6598L16.8451 29.7212C16.8632 29.7521 16.8723 29.7685 16.906 29.8176C16.9769 29.9213 16.9506 30.0627 16.8469 30.1336C16.8082 30.1605 16.7637 30.1732 16.7191 30.1732Z" fill="#1F212B"/>
<path d="M19.7299 31.9795C19.4357 31.9795 19.1443 31.9431 18.8583 31.8699C18.1098 31.678 17.4305 31.2319 16.8934 30.5799C16.8139 30.483 16.8275 30.3398 16.9244 30.2602C17.0217 30.1797 17.1644 30.1943 17.2445 30.2911C17.726 30.8759 18.3067 31.2592 18.9706 31.4293C19.8263 31.6489 20.7453 31.487 21.6297 30.9614C23.0784 30.1001 24.2507 28.3713 24.7654 26.3356C25.6271 22.9275 24.428 19.6677 22.0935 19.0693C21.2373 18.8501 20.3183 19.0115 19.4339 19.5372C17.9852 20.3984 16.8134 22.1272 16.2991 24.163C16.1327 24.8209 16.0395 25.4871 16.0231 26.1428C16.0054 26.8276 16.0704 27.4892 16.2164 28.1085C16.245 28.2308 16.1691 28.3531 16.0472 28.3818C15.9244 28.4118 15.8026 28.3345 15.7735 28.2126C15.6189 27.5556 15.5498 26.8553 15.5684 26.1314C15.5861 25.4421 15.6834 24.7423 15.8585 24.052C16.4019 21.9017 17.6519 20.0683 19.202 19.147C20.1928 18.5582 21.2319 18.3795 22.2068 18.6291C24.7836 19.2898 26.1296 22.797 25.207 26.447C24.6636 28.5973 23.4131 30.4316 21.863 31.3524C21.1627 31.768 20.4388 31.9795 19.7299 31.9795Z" fill="#1F212B"/>
<path d="M10.4229 22.6499L13.2275 23.4534L10.4229 22.6499Z" fill="white"/>
<path d="M13.2276 23.6804C13.2066 23.6804 13.1857 23.6777 13.1648 23.6714L10.3601 22.8679C10.2392 22.8333 10.1696 22.7074 10.2042 22.5869C10.2383 22.4659 10.3638 22.3945 10.4852 22.4309L13.2899 23.2344C13.4108 23.2689 13.4804 23.3949 13.4458 23.5154C13.4172 23.6154 13.3262 23.6804 13.2276 23.6804Z" fill="#1F212B"/>
<path d="M12.0337 19.0449L14.8388 19.8484L12.0337 19.0449Z" fill="white"/>
<path d="M14.8399 20.0758C14.8189 20.0758 14.798 20.0731 14.7771 20.0667L11.9724 19.2628C11.8515 19.2282 11.7819 19.1023 11.8165 18.9818C11.851 18.8603 11.9774 18.7899 12.0975 18.8258L14.9022 19.6297C15.0231 19.6643 15.0927 19.7902 15.0581 19.9107C15.0299 20.0112 14.9385 20.0758 14.8399 20.0758Z" fill="#1F212B"/>
<path d="M10.1494 26.6387L12.9541 27.4421L10.1494 26.6387Z" fill="white"/>
<path d="M12.9546 27.6694C12.9337 27.6694 12.9128 27.6667 12.8919 27.6603L10.0872 26.8568C9.96624 26.8223 9.89666 26.6963 9.93122 26.5758C9.96533 26.4548 10.0913 26.383 10.2122 26.4198L13.0169 27.2233C13.1379 27.2579 13.2074 27.3838 13.1729 27.5043C13.1442 27.6044 13.0533 27.6694 12.9546 27.6694Z" fill="#1F212B"/>
<path d="M29.542 33.6728L29.5011 32.3759C31.8583 30.5866 33.383 27.2777 33.2652 23.5354C33.1474 19.7931 31.4177 16.5751 28.9523 14.9209L28.9113 13.624L25.0704 13.7313V13.7327C25.0458 13.7332 25.0217 13.7327 24.9972 13.7336C20.6051 13.8564 17.4039 18.4226 17.5781 23.9592C17.7522 29.4958 21.2349 33.9056 25.6274 33.7828C25.6519 33.7819 25.676 33.7805 25.7006 33.7796V33.781L29.542 33.6728Z" fill="#EDBE00"/>
<path d="M25.4732 34.0145V34.0123C25.4641 34.0123 25.4555 34.0123 25.4464 34.0123C21.0698 34.0127 17.5294 29.6438 17.3507 23.9658C17.2493 20.7474 18.2642 17.7627 20.1349 15.7778C21.4872 14.3423 23.1665 13.5566 24.9908 13.5056L25.0703 13.7321L25.064 13.5047L29.1314 13.3901L29.1759 14.7979C31.7278 16.5654 33.3784 19.8975 33.4925 23.528C33.6062 27.1584 32.1675 30.5774 29.7316 32.4849L29.7757 33.8931L25.4732 34.0145ZM28.6917 13.8576L25.019 13.9603C23.3033 14.0081 21.7341 14.7447 20.4664 16.0902C18.678 17.9877 17.7085 20.8538 17.8054 23.9522C17.9786 29.4556 21.4295 33.684 25.621 33.5553L25.8547 33.5485L29.3074 33.4521L29.2701 32.2662L29.3637 32.1952C31.741 30.39 33.1492 27.0747 33.0383 23.543C32.9269 20.0103 31.3131 16.7791 28.8258 15.1099L28.729 15.0448L28.6917 13.8576Z" fill="#1F212B"/>
<path d="M29.0776 33.6782C24.6856 33.801 20.9837 29.4126 20.8096 23.8764C20.6354 18.3403 24.0553 13.7522 28.4474 13.6295C32.8395 13.5067 36.5413 17.8951 36.7154 23.4313C36.8891 28.9674 33.4697 33.5554 29.0776 33.6782Z" fill="#EDBE00"/>
<path d="M28.8979 33.9078C24.469 33.9078 20.7572 29.458 20.5817 23.8828C20.483 20.7448 21.5138 17.7906 23.4105 15.7775C24.826 14.2756 26.5652 13.454 28.44 13.4012C32.959 13.283 36.764 17.771 36.9413 23.4231C37.04 26.5615 36.0092 29.5158 34.1121 31.5288C32.6971 33.0307 30.9578 33.8524 29.0825 33.9051C29.0216 33.9069 28.9593 33.9078 28.8979 33.9078ZM28.626 13.8536C28.5683 13.8536 28.511 13.8546 28.4532 13.8564C26.7017 13.905 25.0724 14.678 23.7419 16.0899C21.9276 18.0152 20.9414 20.8508 21.0364 23.8687C21.2037 29.1979 24.7132 33.4527 28.8975 33.4531C28.9552 33.4531 29.0125 33.4522 29.0703 33.4504C30.8218 33.4018 32.4511 32.6287 33.7815 31.2169C35.5958 29.2916 36.5821 26.456 36.4871 23.4376C36.3197 18.1084 32.8103 13.8536 28.626 13.8536Z" fill="#1F212B"/>
<path d="M32.4487 29.5418C32.3974 29.5418 32.3455 29.5245 32.3032 29.489C32.2068 29.4085 32.1941 29.2653 32.2746 29.1689C32.3692 29.0557 32.4606 28.9379 32.5483 28.8156C32.6215 28.7133 32.7634 28.6901 32.8657 28.7638C32.9676 28.837 32.9908 28.9793 32.9176 29.0811C32.823 29.2126 32.7248 29.339 32.6234 29.4604C32.5783 29.5136 32.5138 29.5418 32.4487 29.5418Z" fill="#1F212B"/>
<path d="M29.264 31.1788C26.3784 31.1788 23.9461 27.8958 23.817 23.792C23.7402 21.3429 24.5091 19.0162 25.8746 17.5674C26.7454 16.6435 27.7907 16.1387 28.898 16.1078C28.9339 16.1069 28.9698 16.1064 29.0048 16.1064C31.89 16.1064 34.3222 19.389 34.4514 23.4928C34.5046 25.1934 34.1667 26.809 33.4733 28.1641C33.4165 28.2759 33.2791 28.3205 33.1673 28.2632C33.0554 28.2059 33.0113 28.069 33.0681 27.9572C33.7266 26.6699 34.0476 25.1307 33.9967 23.5069C33.8739 19.6023 31.5949 16.4661 28.9102 16.5625C27.9258 16.5903 26.9905 17.0454 26.2047 17.8794C24.9201 19.2421 24.1972 21.4475 24.2704 23.7784C24.3931 27.683 26.6803 30.78 29.3568 30.7232C30.0316 30.7045 30.68 30.4867 31.2829 30.077C31.3875 30.0066 31.5285 30.0329 31.599 30.1371C31.6694 30.2412 31.6426 30.3822 31.5389 30.4526C30.8623 30.9128 30.1325 31.1565 29.3695 31.1779C29.3354 31.1784 29.2995 31.1788 29.264 31.1788ZM20.8859 24.0621H17.7029C17.5774 24.0621 17.4756 23.9602 17.4756 23.8347C17.4756 23.7092 17.5774 23.6074 17.7029 23.6074H20.8859C21.0114 23.6074 21.1133 23.7092 21.1133 23.8347C21.1133 23.9602 21.0114 24.0621 20.8859 24.0621Z" fill="#1F212B"/>
<path d="M21.341 19.9698H18.158C18.0325 19.9698 17.9307 19.868 17.9307 19.7425C17.9307 19.617 18.0325 19.5151 18.158 19.5151H21.341C21.4665 19.5151 21.5684 19.617 21.5684 19.7425C21.5684 19.868 21.4665 19.9698 21.341 19.9698Z" fill="#1F212B"/>
<path d="M21.7961 28.609H18.6131C18.4876 28.609 18.3857 28.5072 18.3857 28.3817C18.3857 28.2562 18.4876 28.1543 18.6131 28.1543H21.7961C21.9216 28.1543 22.0234 28.2562 22.0234 28.3817C22.0234 28.5072 21.9216 28.609 21.7961 28.609Z" fill="#1F212B"/>
<path d="M25.4773 34.178C20.9515 34.1784 17.3125 29.7141 17.1306 23.9119C17.0273 20.6339 18.0645 17.59 19.9762 15.5616C21.3708 14.081 23.105 13.2707 24.9912 13.218L24.9921 13.2239C25.0157 13.2193 25.0398 13.2166 25.0644 13.2157L28.2387 13.1248C28.306 13.1202 28.3738 13.1152 28.442 13.1139C28.5088 13.1116 28.5789 13.1129 28.6494 13.1139L28.7094 13.1148L28.9049 13.1084C28.9508 13.1107 28.9958 13.1134 29.0386 13.1248C33.4379 13.3844 37.0033 17.8547 37.1761 23.3558C37.3485 28.8428 34.0868 33.4959 29.7284 34.0234C29.6756 34.0493 29.6193 34.0652 29.5606 34.067L25.7196 34.1743L25.6519 33.721L25.6705 34.1757C25.6064 34.1771 25.5414 34.178 25.4773 34.178ZM25.0039 13.6722L25.0167 14.127C23.3779 14.1729 21.8632 14.8845 20.6382 16.1845C18.8912 18.0389 17.944 20.8444 18.0395 23.8833C18.206 29.1861 21.4494 33.2695 25.4559 33.2695C25.5114 33.2695 25.5659 33.2685 25.6214 33.2667L25.6946 33.2635L29.3887 33.1612C29.4246 33.1467 29.4624 33.1367 29.5019 33.133C33.4548 32.7347 36.4268 28.4522 36.2672 23.384C36.1076 18.3144 32.8709 14.2043 28.8981 14.0278C28.8758 14.0269 28.8544 14.0242 28.8331 14.0201L28.7176 14.0237L28.6343 14.0228C28.5789 14.0219 28.5234 14.0206 28.4684 14.0224C28.4111 14.0242 28.3565 14.0283 28.3024 14.0319L28.2333 14.0369L25.1253 14.1238C25.1121 14.1251 25.099 14.126 25.0858 14.1265L25.0039 13.6722Z" fill="#1F212B"/>
<path d="M28.102 25.4261C28.1111 25.4261 28.1297 25.4348 28.1575 25.452L28.1434 25.4452C28.2775 25.5316 28.3971 25.5989 28.5035 25.6485C28.6099 25.698 28.7227 25.7335 28.8427 25.7544V23.6414L28.7281 23.5814C28.5881 23.5095 28.4544 23.434 28.3271 23.3545C28.1998 23.2749 28.0852 23.1867 27.9833 23.0912C27.8815 22.9957 27.7955 22.8938 27.7255 22.7861C27.6555 22.6783 27.6077 22.561 27.5823 22.4332C27.5654 22.3695 27.5559 22.3095 27.5536 22.254C27.5513 22.1981 27.5504 22.1386 27.5504 22.0749C27.5504 21.8875 27.5832 21.7239 27.6491 21.5843C27.715 21.4451 27.8051 21.3264 27.9197 21.2282C28.0342 21.1305 28.1697 21.0532 28.3271 20.9949C28.484 20.9372 28.6558 20.8985 28.8427 20.8785V20.7108C28.8427 20.6312 28.8618 20.5634 28.9 20.5075C28.9382 20.4516 29.0082 20.4238 29.1101 20.4238H29.1183C29.1183 20.4238 29.4598 20.6221 29.4811 20.8253L29.4748 20.9868C29.5935 21.0068 29.7153 21.0377 29.8408 21.0795C29.9659 21.1218 30.1073 21.1746 30.2642 21.2382L30.2451 21.2264C30.3174 21.25 30.3733 21.2801 30.4138 21.316C30.4538 21.3519 30.4783 21.4096 30.6616 21.4897V21.5256C30.487 21.5533 30.4792 21.5893 30.4647 21.6334C30.4501 21.6775 30.4274 21.7189 30.3978 21.7589C30.3683 21.7984 30.3342 21.8334 30.296 21.8634C30.2578 21.893 30.2155 21.908 30.1687 21.908C30.1305 21.908 30.0955 21.9053 30.0636 21.8994C30.0318 21.893 30.2069 21.8484 30.2069 21.8484V21.8544L29.8822 21.8184C29.759 21.7589 29.6235 21.7107 29.2974 21.6747V23.3076L29.5002 23.3194C29.844 23.4831 30.1091 23.6646 30.296 23.8637C30.4829 24.0633 30.6061 24.2702 30.6652 24.4858C30.6907 24.5776 30.7089 24.6613 30.7193 24.7368C30.7298 24.8127 30.7352 24.8905 30.7352 24.97C30.7352 25.1538 30.7034 25.3188 30.6397 25.4666C30.5761 25.6144 30.4888 25.7426 30.3787 25.8526C30.2682 25.9622 30.1359 26.0523 29.9809 26.1218C29.8258 26.1914 29.6571 26.2382 29.2974 26.2623V26.693C29.4748 26.7725 29.4575 26.8403 29.4238 26.8962C29.3897 26.9521 29.2138 27.2454 29.2138 27.2454H29.2238C29.1083 27.2454 29.016 27.2163 28.9469 27.1581C28.8777 27.0999 28.8432 27.0153 28.8432 26.9035V26.4715C28.594 26.4456 28.3794 26.3942 28.1993 26.3169C28.0192 26.2396 27.8346 26.1423 27.6455 26.0263C27.5945 25.9877 27.56 25.9513 27.5418 25.9172C27.5231 25.8827 27.5022 25.8354 27.4795 25.7749V25.7362C27.4795 25.6976 27.4922 25.6535 27.5177 25.6039C27.5427 25.5548 27.5741 25.5071 27.6114 25.462C27.6482 25.417 27.6873 25.3784 27.7291 25.3461C27.7705 25.3138 27.8096 25.2974 27.8469 25.2974C27.8978 25.2974 27.9428 25.312 27.9819 25.3397C28.0211 25.3675 28.0588 25.3966 28.0961 25.4266L28.102 25.4261C28.1111 25.4307 28.1184 25.4334 28.1229 25.4334L28.102 25.4261ZM28.4899 22.751C28.5894 22.8393 28.7072 22.9166 28.8432 22.9848V21.6747C28.6822 21.707 28.5472 21.7684 28.4389 21.8598C28.3307 21.9517 28.2766 22.0749 28.2766 22.2309C28.2766 22.255 28.2775 22.2809 28.2798 22.3091C28.2816 22.3368 28.2871 22.3709 28.2957 22.4105C28.3253 22.5501 28.3898 22.6637 28.4899 22.751ZM29.603 24.3275C29.518 24.2298 29.4161 24.1452 29.2974 24.0734V25.5621C29.4461 25.5066 29.5703 25.4207 29.6698 25.3052C29.7694 25.1897 29.8194 25.0542 29.8194 24.8987C29.8194 24.855 29.8154 24.815 29.8067 24.7791C29.7981 24.7431 29.7894 24.7059 29.7813 24.6654C29.7476 24.5376 29.688 24.4248 29.603 24.3275Z" fill="#1F212B"/>
</svg>
