<svg width="30" height="30" viewBox="0 0 30 30" fill="none" xmlns="http://www.w3.org/2000/svg">
<path d="M17.1741 4.37509C16.9278 4.37864 16.6928 4.47898 16.5199 4.65441C16.3469 4.82984 16.25 5.06627 16.25 5.31259V10.1783C14.5889 10.3636 11.8581 10.8396 9.10889 12.6197C5.9875 14.6408 3.21261 18.3565 3.14819 24.4911C3.14726 24.4957 3.14424 24.4986 3.14331 24.5033H3.14575C3.14508 24.5707 3.125 24.6195 3.125 24.6876C3.12525 24.92 3.21184 25.1441 3.36797 25.3163C3.5241 25.4886 3.73865 25.5966 3.96997 25.6196C4.20129 25.6426 4.43289 25.5788 4.61984 25.4406C4.80678 25.3025 4.93574 25.0998 4.98169 24.8719C5.72378 21.1618 8.03698 19.5176 10.6006 18.6744C12.7643 17.9627 14.8828 17.9625 16.25 18.0348V22.8126C16.2501 22.998 16.3051 23.1792 16.4081 23.3333C16.5111 23.4874 16.6575 23.6075 16.8288 23.6785C17.0001 23.7494 17.1885 23.768 17.3704 23.7318C17.5522 23.6957 17.7192 23.6065 17.8503 23.4754L26.6003 14.7254C26.7761 14.5496 26.8748 14.3112 26.8748 14.0626C26.8748 13.814 26.7761 13.5756 26.6003 13.3998L17.8503 4.64975C17.7617 4.56108 17.6562 4.49109 17.54 4.44391C17.4239 4.39673 17.2994 4.37333 17.1741 4.37509ZM18.125 7.57578L24.6118 14.0626L18.125 20.5494V17.1156C18.1251 16.8821 18.0381 16.6569 17.8809 16.4842C17.7238 16.3115 17.5079 16.2036 17.2754 16.1817C15.9729 16.0598 12.9935 15.9136 10.0146 16.8934C8.62295 17.3511 7.24089 18.1215 6.05469 19.2225C7.0041 16.9011 8.46608 15.2706 10.1282 14.1944C12.8619 12.4244 16.0033 11.9941 17.2559 11.9019C17.492 11.8847 17.7129 11.7786 17.8741 11.6052C18.0354 11.4317 18.125 11.2037 18.125 10.9669V7.57578Z" fill="white"/>
</svg>
