<svg width="46" height="46" viewBox="0 0 46 46" fill="none" xmlns="http://www.w3.org/2000/svg">
<path d="M22.8619 4.21045C12.3978 4.21045 3.91553 12.6927 3.91553 23.1568C3.91553 33.6209 12.3978 42.1032 22.8619 42.1032C33.326 42.1032 41.8083 33.6209 41.8083 23.1568C41.8083 12.6927 33.326 4.21045 22.8619 4.21045Z" fill="url(#paint0_linear_639_1972)"/>
<path d="M25.4269 28.1785H30.3302L31.1004 23.1975H25.4269V20.4749C25.4269 18.4059 26.1033 16.571 28.0387 16.571H31.1487V12.2247C30.6021 12.1508 29.4464 11.9897 27.2628 11.9897C22.7024 11.9897 20.0291 14.3978 20.0291 19.8847V23.1984H15.3408V28.1794H20.0282V41.8701C20.9565 42.0084 21.8972 42.1031 22.8625 42.1031C23.735 42.1031 24.5866 42.0235 25.4269 41.9099V28.1785Z" fill="white"/>
<defs>
<linearGradient id="paint0_linear_639_1972" x1="9.59281" y1="9.88773" x2="38.6016" y2="38.8965" gradientUnits="userSpaceOnUse">
<stop stop-color="#2AA4F4"/>
<stop offset="1" stop-color="#007AD9"/>
</linearGradient>
</defs>
</svg>
